<?xml version="1.0" encoding="UTF-8"?>
<!DOCTYPE svg PUBLIC "-//W3C//DTD SVG 1.1//EN" "http://www.w3.org/Graphics/SVG/1.1/DTD/svg11.dtd">
<svg xmlns="http://www.w3.org/2000/svg" version="1.1" width="548px" height="272px" style="shape-rendering:geometricPrecision; text-rendering:geometricPrecision; image-rendering:optimizeQuality; fill-rule:evenodd; clip-rule:evenodd" xmlns:xlink="http://www.w3.org/1999/xlink">
<g><path style="opacity:1" fill="#f75d34" d="M -0.5,-0.5 C 182.167,-0.5 364.833,-0.5 547.5,-0.5C 547.5,90.1667 547.5,180.833 547.5,271.5C 364.833,271.5 182.167,271.5 -0.5,271.5C -0.5,180.833 -0.5,90.1667 -0.5,-0.5 Z"/></g>
<g><path style="opacity:1" fill="#fff2ef" d="M 406.5,130.5 C 414.077,130.067 416.743,133.4 414.5,140.5C 406.332,144.8 402.499,142.467 403,133.5C 404.145,132.364 405.312,131.364 406.5,130.5 Z"/></g>
<g><path style="opacity:1" fill="#fffbfa" d="M 160.5,133.5 C 164.167,133.5 167.833,133.5 171.5,133.5C 171.173,138.544 171.506,143.544 172.5,148.5C 173.107,148.376 173.44,148.043 173.5,147.5C 180.72,142.575 186.387,143.908 190.5,151.5C 190.5,158.5 190.5,165.5 190.5,172.5C 186.833,172.5 183.167,172.5 179.5,172.5C 179.666,167.156 179.499,161.823 179,156.5C 176.667,153.833 174.333,153.833 172,156.5C 171.501,161.823 171.334,167.156 171.5,172.5C 167.833,172.5 164.167,172.5 160.5,172.5C 160.5,159.5 160.5,146.5 160.5,133.5 Z"/></g>
<g><path style="opacity:1" fill="#ffebe6" d="M 54.5,123.5 C 60.701,122.232 65.701,124.066 69.5,129C 82.5945,127.595 88.5945,133.428 87.5,146.5C 98.9865,153.403 99.4865,161.07 89,169.5C 89.003,182.488 82.503,187.988 69.5,186C 65.7405,192.479 60.4072,194.145 53.5,191C 50.93,188.933 48.93,186.433 47.5,183.5C 34.5768,185.408 29.0768,179.742 31,166.5C 24.5186,159.193 25.3519,152.693 33.5,147C 31.3414,135.311 36.3414,129.478 48.5,129.5C 50.215,127.118 52.215,125.118 54.5,123.5 Z"/></g>
<g><path style="opacity:1" fill="#f86d47" d="M 48.5,134.5 C 55.3095,135.1 55.9761,137.266 50.5,141C 49.552,141.483 48.552,141.649 47.5,141.5C 47.6741,139.139 48.0074,136.806 48.5,134.5 Z"/></g>
<g><path style="opacity:1" fill="#f86d47" d="M 65.5,133.5 C 66.9778,133.238 68.3112,133.571 69.5,134.5C 70.5771,136.729 71.2437,139.063 71.5,141.5C 68.1589,141.344 65.3255,140.011 63,137.5C 62.3333,136.833 62.3333,136.167 63,135.5C 63.9947,134.934 64.828,134.267 65.5,133.5 Z"/></g>
<g><path style="opacity:1" fill="#f8673f" d="M 40.5,133.5 C 42.5273,133.338 44.5273,133.505 46.5,134C 44.5965,136.877 43.5965,140.044 43.5,143.5C 40.8333,144.167 38.1667,144.833 35.5,145.5C 34.302,140.121 35.9687,136.121 40.5,133.5 Z"/></g>
<g><path style="opacity:1" fill="#f7663e" d="M 79.5,132.5 C 83.1542,135.141 84.4876,138.808 83.5,143.5C 80.7294,143.579 78.0627,143.079 75.5,142C 74.3989,139.528 73.3989,137.028 72.5,134.5C 74.2789,132.656 76.6122,131.99 79.5,132.5 Z"/></g>
<g><path style="opacity:1" fill="#fba48d" d="M 79.5,132.5 C 76.6122,131.99 74.2789,132.656 72.5,134.5C 71.596,133.791 71.2627,132.791 71.5,131.5C 74.3854,131.194 77.0521,131.527 79.5,132.5 Z"/></g>
<g><path style="opacity:1" fill="#f7633c" d="M 55.5,126.5 C 59.9108,125.66 63.5775,126.827 66.5,130C 61.679,135.189 56.679,135.523 51.5,131C 53.0414,129.629 54.3747,128.129 55.5,126.5 Z"/></g>
<g><path style="opacity:1" fill="#fba28a" d="M 160.5,133.5 C 160.5,146.5 160.5,159.5 160.5,172.5C 159.507,164.35 159.174,156.017 159.5,147.5C 157.585,147.784 155.919,147.451 154.5,146.5C 155.833,146.5 157.167,146.5 158.5,146.5C 158.5,143.167 158.5,139.833 158.5,136.5C 143.833,136.5 129.167,136.5 114.5,136.5C 129.829,136.105 145.163,135.105 160.5,133.5 Z"/></g>
<g><path style="opacity:1" fill="#fffaf9" d="M 114.5,136.5 C 129.167,136.5 143.833,136.5 158.5,136.5C 158.5,139.833 158.5,143.167 158.5,146.5C 157.167,146.5 155.833,146.5 154.5,146.5C 150.5,146.5 146.5,146.5 142.5,146.5C 142.5,155.167 142.5,163.833 142.5,172.5C 138.167,172.5 133.833,172.5 129.5,172.5C 129.5,163.833 129.5,155.167 129.5,146.5C 124.5,146.5 119.5,146.5 114.5,146.5C 114.5,143.167 114.5,139.833 114.5,136.5 Z"/></g>
<g><path style="opacity:1" fill="#fff9f8" d="M 352.5,136.5 C 363.922,136.75 368.422,142.416 366,153.5C 363.851,156.659 361.017,158.992 357.5,160.5C 360.167,164.167 362.833,167.833 365.5,171.5C 360.833,172.833 356.167,172.833 351.5,171.5C 349.625,168.249 347.625,165.082 345.5,162C 343.19,161.503 340.857,161.337 338.5,161.5C 338.5,165.167 338.5,168.833 338.5,172.5C 334.5,172.5 330.5,172.5 326.5,172.5C 326.5,160.5 326.5,148.5 326.5,136.5C 335.167,136.5 343.833,136.5 352.5,136.5 Z"/></g>
<g><path style="opacity:1" fill="#fccec2" d="M 437.5,159.5 C 436.508,152.018 436.175,144.352 436.5,136.5C 432.833,136.5 429.167,136.5 425.5,136.5C 425.5,144.5 425.5,152.5 425.5,160.5C 424.507,152.35 424.174,144.017 424.5,135.5C 428.833,135.5 433.167,135.5 437.5,135.5C 437.5,143.5 437.5,151.5 437.5,159.5 Z"/></g>
<g><path style="opacity:1" fill="#fffbfa" d="M 437.5,159.5 C 442.357,163.1 447.524,163.433 453,160.5C 454.435,152.611 454.935,144.611 454.5,136.5C 458.5,136.5 462.5,136.5 466.5,136.5C 466.5,144.833 466.5,153.167 466.5,161.5C 462.135,170.54 454.802,174.54 444.5,173.5C 438.09,173.861 432.59,171.861 428,167.5C 426.589,165.35 425.755,163.016 425.5,160.5C 425.5,152.5 425.5,144.5 425.5,136.5C 429.167,136.5 432.833,136.5 436.5,136.5C 436.175,144.352 436.508,152.018 437.5,159.5 Z"/></g>
<g><path style="opacity:1" fill="#fcc4b5" d="M 454.5,136.5 C 458.634,135.515 462.968,135.182 467.5,135.5C 467.826,144.349 467.493,153.016 466.5,161.5C 466.5,153.167 466.5,144.833 466.5,136.5C 462.5,136.5 458.5,136.5 454.5,136.5 Z"/></g>
<g><path style="opacity:1" fill="#fbaf9b" d="M 171.5,133.5 C 172.167,138.167 172.833,142.833 173.5,147.5C 173.44,148.043 173.107,148.376 172.5,148.5C 171.506,143.544 171.173,138.544 171.5,133.5 Z"/></g>
<g><path style="opacity:1" fill="#fb9274" d="M 57.5,138.5 C 58.7562,138.461 59.7562,138.961 60.5,140C 58.6354,141.301 56.6354,141.635 54.5,141C 55.5707,140.148 56.5707,139.315 57.5,138.5 Z"/></g>
<g><path style="opacity:1" fill="#fbaf9b" d="M 352.5,136.5 C 343.833,136.5 335.167,136.5 326.5,136.5C 326.5,148.5 326.5,160.5 326.5,172.5C 325.505,160.345 325.171,148.011 325.5,135.5C 334.682,135.173 343.682,135.507 352.5,136.5 Z"/></g>
<g><path style="opacity:1" fill="#f86740" d="M 51.5,143.5 C 54.1667,143.5 56.8333,143.5 59.5,143.5C 59.1927,146.899 58.1927,150.066 56.5,153C 52.6732,154.79 48.6732,155.956 44.5,156.5C 43.9684,150.56 46.3017,146.227 51.5,143.5 Z"/></g>
<g><path style="opacity:1" fill="#f7663f" d="M 62.5,143.5 C 66.1702,143.811 69.1702,145.478 71.5,148.5C 73.1713,150.51 73.838,152.843 73.5,155.5C 70.4121,155.623 67.7454,154.623 65.5,152.5C 64.2946,149.55 63.2946,146.55 62.5,143.5 Z"/></g>
<g><path style="opacity:1" fill="#fff8f7" d="M 225.5,166.5 C 225.5,167.167 225.833,167.5 226.5,167.5C 226.5,169.167 226.5,170.833 226.5,172.5C 222.818,172.665 219.152,172.499 215.5,172C 214.228,170.693 213.228,169.193 212.5,167.5C 211.307,169.527 209.64,171.027 207.5,172C 203.5,172.667 199.5,172.667 195.5,172C 194.627,170.955 193.627,170.122 192.5,169.5C 192.5,166.5 192.5,163.5 192.5,160.5C 194.527,158.82 196.861,157.653 199.5,157C 197.188,155.686 195.188,154.019 193.5,152C 195.966,148.55 199.299,146.217 203.5,145C 220.707,142.375 228.04,149.541 225.5,166.5 Z"/></g>
<g><path style="opacity:1" fill="#fffaf9" d="M 228.5,145.5 C 231.833,145.5 235.167,145.5 238.5,145.5C 238.238,146.978 238.571,148.311 239.5,149.5C 241.381,147.266 243.715,145.933 246.5,145.5C 248.167,145.5 249.833,145.5 251.5,145.5C 251.5,147.833 251.5,150.167 251.5,152.5C 251.5,153.833 251.5,155.167 251.5,156.5C 248.015,155.41 244.681,155.41 241.5,156.5C 240.883,156.611 240.383,156.944 240,157.5C 239.501,162.489 239.334,167.489 239.5,172.5C 235.833,172.5 232.167,172.5 228.5,172.5C 228.5,163.5 228.5,154.5 228.5,145.5 Z"/></g>
<g><path style="opacity:1" fill="#fffaf9" d="M 264.5,162.5 C 266.964,165.216 269.13,164.882 271,161.5C 271.499,156.177 271.666,150.844 271.5,145.5C 275.5,145.5 279.5,145.5 283.5,145.5C 283.5,154.5 283.5,163.5 283.5,172.5C 280.167,172.5 276.833,172.5 273.5,172.5C 273.884,170.335 273.217,168.668 271.5,167.5C 270.702,167.957 270.369,168.624 270.5,169.5C 264.048,175.257 258.381,174.59 253.5,167.5C 253.5,160.167 253.5,152.833 253.5,145.5C 256.833,145.5 260.167,145.5 263.5,145.5C 263.178,151.358 263.511,157.025 264.5,162.5 Z"/></g>
<g><path style="opacity:1" fill="#fff7f5" d="M 285.5,172.5 C 285.5,163.5 285.5,154.5 285.5,145.5C 288.833,145.5 292.167,145.5 295.5,145.5C 295.116,147.665 295.783,149.332 297.5,150.5C 298.298,150.043 298.631,149.376 298.5,148.5C 303.81,143.263 309.31,143.263 315,148.5C 316.435,156.389 316.935,164.389 316.5,172.5C 312.5,172.5 308.5,172.5 304.5,172.5C 304.666,166.824 304.499,161.157 304,155.5C 301.733,154.065 299.733,154.398 298,156.5C 297.501,161.823 297.334,167.156 297.5,172.5C 293.5,172.5 289.5,172.5 285.5,172.5 Z"/></g>
<g><path style="opacity:1" fill="#fff8f6" d="M 401.5,167.5 C 401.5,169.167 401.5,170.833 401.5,172.5C 396.05,173.342 391.384,172.008 387.5,168.5C 381.785,172.975 375.618,173.641 369,170.5C 365.556,163.62 367.389,159.12 374.5,157C 372.5,155.333 370.5,153.667 368.5,152C 375.426,144.482 383.759,142.482 393.5,146C 396.171,147.25 398.337,149.083 400,151.5C 400.215,156.915 400.715,162.248 401.5,167.5 Z"/></g>
<g><path style="opacity:1" fill="#fffbfa" d="M 414.5,176.5 C 410.525,182.502 404.858,184.836 397.5,183.5C 397.5,180.833 397.5,178.167 397.5,175.5C 399.698,175.88 401.365,175.213 402.5,173.5C 403.494,164.348 403.827,155.015 403.5,145.5C 407.167,145.5 410.833,145.5 414.5,145.5C 414.5,155.833 414.5,166.167 414.5,176.5 Z"/></g>
<g><path style="opacity:1" fill="#f86a44" d="M 76.5,145.5 C 78.1172,146.038 79.7839,146.371 81.5,146.5C 81.9492,148.977 81.2825,150.977 79.5,152.5C 76.9066,150.929 75.9066,148.596 76.5,145.5 Z"/></g>
<g><path style="opacity:1" fill="#f76037" d="M 338.5,146.5 C 343.511,146.334 348.511,146.501 353.5,147C 354.337,148.011 354.67,149.178 354.5,150.5C 349.195,151.194 343.862,151.528 338.5,151.5C 338.5,149.833 338.5,148.167 338.5,146.5 Z"/></g>
<g><path style="opacity:1" fill="#f86f4b" d="M 38.5,147.5 C 42.9595,147.58 43.1262,149.246 39,152.5C 37.4807,150.861 37.314,149.194 38.5,147.5 Z"/></g>
<g><path style="opacity:1" fill="#f86740" d="M 84.5,148.5 C 93.6452,151.115 95.8118,156.448 91,164.5C 89.8904,166.037 88.3904,166.703 86.5,166.5C 85.5091,162.702 83.8424,159.202 81.5,156C 82.6513,153.535 83.6513,151.035 84.5,148.5 Z"/></g>
<g><path style="opacity:1" fill="#fdbdac" d="M 295.5,145.5 C 296.1,146.9 297.1,147.9 298.5,148.5C 298.631,149.376 298.298,150.043 297.5,150.5C 295.783,149.332 295.116,147.665 295.5,145.5 Z"/></g>
<g><path style="opacity:1" fill="#fba791" d="M 414.5,176.5 C 414.5,166.167 414.5,155.833 414.5,145.5C 410.833,145.5 407.167,145.5 403.5,145.5C 403.827,155.015 403.494,164.348 402.5,173.5C 402.5,172.833 402.167,172.5 401.5,172.5C 401.5,170.833 401.5,169.167 401.5,167.5C 402.492,160.018 402.825,152.352 402.5,144.5C 406.833,144.5 411.167,144.5 415.5,144.5C 415.828,155.346 415.494,166.013 414.5,176.5 Z"/></g>
<g><path style="opacity:1" fill="#f98a6c" d="M 227.5,145.5 C 227.825,153.019 227.492,160.352 226.5,167.5C 225.833,167.5 225.5,167.167 225.5,166.5C 226.167,159.5 226.833,152.5 227.5,145.5 Z"/></g>
<g><path style="opacity:1" fill="#fdd9cf" d="M 227.5,145.5 C 227.833,145.5 228.167,145.5 228.5,145.5C 228.5,154.5 228.5,163.5 228.5,172.5C 227.833,172.5 227.167,172.5 226.5,172.5C 226.5,170.833 226.5,169.167 226.5,167.5C 227.492,160.352 227.825,153.019 227.5,145.5 Z"/></g>
<g><path style="opacity:1" fill="#fcbaa8" d="M 246.5,145.5 C 252.31,144.51 258.31,144.177 264.5,144.5C 264.5,150.5 264.5,156.5 264.5,162.5C 263.511,157.025 263.178,151.358 263.5,145.5C 260.167,145.5 256.833,145.5 253.5,145.5C 253.5,152.833 253.5,160.167 253.5,167.5C 252.833,162.5 252.167,157.5 251.5,152.5C 251.5,150.167 251.5,147.833 251.5,145.5C 249.833,145.5 248.167,145.5 246.5,145.5 Z"/></g>
<g><path style="opacity:1" fill="#f99073" d="M 283.5,145.5 C 284.167,145.5 284.833,145.5 285.5,145.5C 285.5,154.5 285.5,163.5 285.5,172.5C 284.833,172.5 284.167,172.5 283.5,172.5C 283.5,163.5 283.5,154.5 283.5,145.5 Z"/></g>
<g><path style="opacity:1" fill="#f76740" d="M 32.5,151.5 C 35.1213,151.477 36.4546,152.811 36.5,155.5C 35.6965,158.44 34.3631,161.107 32.5,163.5C 29.9192,159.536 29.9192,155.536 32.5,151.5 Z"/></g>
<g><path style="opacity:1" fill="#f86e49" d="M 60.5,150.5 C 61.8947,153.733 64.228,156.233 67.5,158C 64.3289,159.177 62.1622,161.343 61,164.5C 60.0473,160.547 57.5473,158.381 53.5,158C 57.4183,156.917 59.7517,154.417 60.5,150.5 Z"/></g>
<g><path style="opacity:1" fill="#f7643c" d="M 208.5,153.5 C 209.552,153.351 210.552,153.517 211.5,154C 212.833,154.667 212.833,155.333 211.5,156C 208.833,156.667 206.167,156.667 203.5,156C 205.315,155.243 206.981,154.41 208.5,153.5 Z"/></g>
<g><path style="opacity:1" fill="#f86b44" d="M 382.5,153.5 C 384.75,153.181 386.75,153.681 388.5,155C 385.706,156.557 382.706,156.89 379.5,156C 380.571,155.148 381.571,154.315 382.5,153.5 Z"/></g>
<g><path style="opacity:1" fill="#f7653e" d="M 44.5,158.5 C 48.5834,159.354 52.5834,160.521 56.5,162C 58.1909,165.279 59.1909,168.779 59.5,172.5C 57.4727,172.662 55.4727,172.495 53.5,172C 48.5895,168.622 45.5895,164.122 44.5,158.5 Z"/></g>
<g><path style="opacity:1" fill="#f86e49" d="M 37.5,159.5 C 41.6827,161.402 43.3494,164.735 42.5,169.5C 35.4906,168.798 33.8239,165.465 37.5,159.5 Z"/></g>
<g><path style="opacity:1" fill="#f86d47" d="M 70.5,159.5 C 71.5,159.5 72.5,159.5 73.5,159.5C 73.3921,161.783 72.5588,163.783 71,165.5C 68.1726,167.494 65.6726,169.828 63.5,172.5C 62.6338,166.425 64.9671,162.092 70.5,159.5 Z"/></g>
<g><path style="opacity:1" fill="#f86d47" d="M 78.5,159.5 C 81.3461,160.813 83.0128,163.147 83.5,166.5C 81.8958,169.647 79.2292,171.313 75.5,171.5C 75.7481,167.243 76.7481,163.243 78.5,159.5 Z"/></g>
<g><path style="opacity:1" fill="#f99176" d="M 241.5,156.5 C 240.925,161.969 240.259,167.302 239.5,172.5C 239.334,167.489 239.501,162.489 240,157.5C 240.383,156.944 240.883,156.611 241.5,156.5 Z"/></g>
<g><path style="opacity:1" fill="#f76841" d="M 384.5,160.5 C 385.873,160.343 387.207,160.51 388.5,161C 385.503,164.205 382.17,164.871 378.5,163C 380.502,161.981 382.502,161.148 384.5,160.5 Z"/></g>
<g><path style="opacity:1" fill="#f7663f" d="M 208.5,160.5 C 212.29,160.008 212.956,160.841 210.5,163C 208.26,163.977 205.927,164.477 203.5,164.5C 203.5,163.5 203.5,162.5 203.5,161.5C 205.415,161.784 207.081,161.451 208.5,160.5 Z"/></g>
<g><path style="opacity:1" fill="#fb9a80" d="M 190.5,151.5 C 191.167,154.5 191.833,157.5 192.5,160.5C 192.5,163.5 192.5,166.5 192.5,169.5C 191.833,170.5 191.167,171.5 190.5,172.5C 190.5,165.5 190.5,158.5 190.5,151.5 Z"/></g>
<g><path style="opacity:1" fill="#fcb19c" d="M 273.5,172.5 C 272.9,171.1 271.9,170.1 270.5,169.5C 270.369,168.624 270.702,167.957 271.5,167.5C 273.217,168.668 273.884,170.335 273.5,172.5 Z"/></g>
<g><path style="opacity:1" fill="#f7643c" d="M 34.5,169.5 C 37.2621,170.964 40.0954,172.297 43,173.5C 44.3409,176.022 45.1743,178.689 45.5,181.5C 37.0073,182.005 33.3406,178.005 34.5,169.5 Z"/></g>
<g><path style="opacity:1" fill="#f98668" d="M 45.5,168.5 C 46.6266,169.122 47.6266,169.955 48.5,171C 46.5106,171.519 45.5106,170.686 45.5,168.5 Z"/></g>
<g><path style="opacity:1" fill="#f76640" d="M 71.5,168.5 C 73.0173,171.495 72.0173,172.661 68.5,172C 69.7101,170.961 70.7101,169.794 71.5,168.5 Z"/></g>
<g><path style="opacity:1" fill="#f86740" d="M 83.5,171.5 C 86.4377,175.392 85.771,178.892 81.5,182C 78.5184,182.498 75.5184,182.665 72.5,182.5C 72.6941,179.67 73.3608,177.004 74.5,174.5C 77.7846,174.072 80.7846,173.072 83.5,171.5 Z"/></g>
<g><path style="opacity:1" fill="#f86a44" d="M 47.5,174.5 C 50.3919,174.721 53.0585,175.554 55.5,177C 51.0149,181.161 48.3483,180.328 47.5,174.5 Z"/></g>
<g><path style="opacity:1" fill="#f86741" d="M 63.5,175.5 C 65.8333,175.5 68.1667,175.5 70.5,175.5C 70.3895,182.409 67.8895,183.409 63,178.5C 62.5304,177.423 62.6971,176.423 63.5,175.5 Z"/></g>
<g><path style="opacity:1" fill="#f7663f" d="M 56.5,179.5 C 59.9807,180.232 63.314,181.566 66.5,183.5C 67.521,184.002 67.6877,184.668 67,185.5C 61.1672,191.164 56.0005,190.664 51.5,184C 52.7615,182.038 54.4281,180.538 56.5,179.5 Z"/></g>
</svg>
