<?xml version="1.0" encoding="UTF-8"?>
<svg version="1.1" xmlns="http://www.w3.org/2000/svg" width="830" height="300">
<path d="M0 0 C6.24723226 -0.82200425 10.71317837 2.07448606 16 5 C17.32 4.01 18.64 3.02 20 2 C20.17917969 3.23492187 20.35835938 4.46984375 20.54296875 5.7421875 C21.16431357 8.21992954 21.55874932 9.61121378 23.49072266 11.31347656 C25.39526782 12.37287017 27.30693682 13.27230107 29.3125 14.125 C36.83750265 17.46782368 36.83750265 17.46782368 39.5859375 21.171875 C41.74835575 24.23033536 41.74835575 24.23033536 45.05078125 24.8828125 C46.12714844 24.96273437 47.20351562 25.04265625 48.3125 25.125 C55.06990957 25.89027855 59.71179293 27.30964876 65.0625 31.6875 C67.20144615 36.96356717 65.27132759 42.75412202 63.5 47.9375 C60.97294503 53.87747792 56.86467188 58.78932637 52 63 C51.01 63 50.02 63 49 63 C48.01 60.525 48.01 60.525 47 58 C45.68 58.99 44.36 59.98 43 61 C42.5875 60.484375 42.175 59.96875 41.75 59.4375 C40.11064814 57.75857402 40.11064814 57.75857402 37.9375 58.125 C35.6488757 58.95252093 35.6488757 58.95252093 34 62 C33.57216934 64.80590236 33.77169298 67.1233315 34 70 C37.34176968 72.22784645 38.95197345 72.26304462 42.859375 71.69140625 C46.65481458 70.46550697 49.25496471 67.80508294 52 65 C52.48198463 66.24891614 52.96045677 67.49918808 53.4375 68.75 C53.70433594 69.44609375 53.97117187 70.1421875 54.24609375 70.859375 C55.83315142 75.365632 56.17813993 79.19022196 56 84 C55.67 84.66 55.34 85.32 55 86 C56.485 86.185625 56.485 86.185625 58 86.375 C69.97916291 88.13098171 81.6545306 92.26547263 89.5703125 101.9140625 C92.68660929 106.59783792 94.46637859 111.61362237 96 117 C95.01 117 94.02 117 93 117 C93.32742188 117.78632813 93.65484375 118.57265625 93.9921875 119.3828125 C95.27171195 123.97521422 95.21774403 128.13792039 95.125 132.875 C95.11597656 133.75414062 95.10695313 134.63328125 95.09765625 135.5390625 C95.07424577 137.6928271 95.0383801 139.84645014 95 142 C94.01 142.33 93.02 142.66 92 143 C90.98245132 144.8653245 90.98245132 144.8653245 90.3125 147.0625 C89.93544922 148.16271484 89.93544922 148.16271484 89.55078125 149.28515625 C89.36902344 149.85105469 89.18726563 150.41695312 89 151 C87 151 87 151 85.2734375 149.3203125 C84.64695312 148.59585938 84.02046875 147.87140625 83.375 147.125 C82.74335938 146.40570313 82.11171875 145.68640625 81.4609375 144.9453125 C80 143 80 143 80 141 C78.35 140.67 76.7 140.34 75 140 C74.01 141.32 73.02 142.64 72 144 C70.97519531 143.51789063 69.95039063 143.03578125 68.89453125 142.5390625 C67.53388869 141.90096806 66.17320967 141.26295133 64.8125 140.625 C64.13896484 140.30789062 63.46542969 139.99078125 62.77148438 139.6640625 C56.15719325 136.2814163 56.15719325 136.2814163 49 135 C49.495 135.45375 49.99 135.9075 50.5 136.375 C52 138 52 138 52 140 C50.85853516 139.83701416 49.71707031 139.67402832 48.54101562 139.50610352 C44.12426925 138.95619264 39.78956525 138.87159171 35.34375 138.90234375 C34.16214294 138.90446617 34.16214294 138.90446617 32.95666504 138.90663147 C30.47106936 138.91217388 27.98556789 138.92471515 25.5 138.9375 C23.80208465 138.94252246 22.10416786 138.94708405 20.40625 138.95117188 C16.27079771 138.96212436 12.13541476 138.97934834 8 139 C9.98 139.99 9.98 139.99 12 141 C12 141.33 12 141.66 12 142 C-6.44915559 142.72192348 -20.82381604 139.45067608 -37.52734375 131.609375 C-40.5133073 129.92991975 -40.5133073 129.92991975 -42 130 C-41.01 131.32 -40.02 132.64 -39 134 C-44.95592183 134 -50.27303871 128.8753064 -54.5625 125 C-64.42880063 114.67373198 -69.19135137 101.42780286 -70.1875 87.5 C-70.3102832 85.98019531 -70.3102832 85.98019531 -70.43554688 84.4296875 C-70.63408947 81.95374451 -70.8219864 79.47748905 -71 77 C-71.99 77.495 -71.99 77.495 -73 78 C-73.89554708 63.24834945 -70.16329958 50.82230624 -63 38 C-63.66 38 -64.32 38 -65 38 C-63.94795679 29.90511196 -57.78534814 23.14953367 -51.6875 18.0625 C-46.95120107 14.63817238 -41.6967192 12.32436549 -36 11 C-35.34 11.33 -34.68 11.66 -34 12 C-33.9175 11.21625 -33.835 10.4325 -33.75 9.625 C-33 7 -33 7 -31.34375 5.875 C-28.44297153 4.7920427 -25.83643771 4.57628942 -22.75 4.375 C-21.67234375 4.30023438 -20.5946875 4.22546875 -19.484375 4.1484375 C-18.66453125 4.09945312 -17.8446875 4.05046875 -17 4 C-17 3.34 -17 2.68 -17 2 C-11.55211412 0.18403804 -5.53613706 0.57131947 0 2 C0 1.34 0 0.68 0 0 Z M-26 14 C-24.70886391 19.75142442 -22.6791863 23.37743259 -19 28 C-18.67 28 -18.34 28 -18 28 C-18.03480469 27.37351562 -18.06960937 26.74703125 -18.10546875 26.1015625 C-18.13253906 25.28429687 -18.15960938 24.46703125 -18.1875 23.625 C-18.22230469 22.81289062 -18.25710937 22.00078125 -18.29296875 21.1640625 C-18.19628906 20.44992188 -18.09960938 19.73578125 -18 19 C-17.01 18.34 -16.02 17.68 -15 17 C-16.65 16.67 -18.3 16.34 -20 16 C-19.01 14.68 -18.02 13.36 -17 12 C-20.79557881 12 -22.62902617 12.50178941 -26 14 Z M-15 12 C-15.33 12.66 -15.66 13.32 -16 14 C-15.01 14 -14.02 14 -13 14 C-13 13.34 -13 12.68 -13 12 C-13.66 12 -14.32 12 -15 12 Z M-11 13 C-11 13.66 -11 14.32 -11 15 C-10.01 14.67 -9.02 14.34 -8 14 C-8.99 13.67 -9.98 13.34 -11 13 Z M12 23 C15.96022339 23.89424399 19.87547877 24.29718004 23.9140625 24.62109375 C26 25 26 25 29 27 C29.66 25.68 30.32 24.36 31 23 C24.91022652 20.43588485 17.66979538 19.22013641 12 23 Z M8 27 C7.67 29.97 7.34 32.94 7 36 C9.31 34.68 11.62 33.36 14 32 C12.3545622 30.31237149 10.68711423 28.6459651 9 27 C8.67 27 8.34 27 8 27 Z M45 32 C47.96178773 33.67110042 50.37071192 34.32682752 53.75 34.625 C54.54921875 34.69976562 55.3484375 34.77453125 56.171875 34.8515625 C56.77515625 34.90054688 57.3784375 34.94953125 58 35 C58 34.34 58 33.68 58 33 C54.98509443 31.99503148 52.95818308 31.89664697 49.8125 31.9375 C48.91144531 31.94652344 48.01039063 31.95554687 47.08203125 31.96484375 C46.05142578 31.98224609 46.05142578 31.98224609 45 32 Z M12 37 C9.98958997 39.93449408 9.98958997 39.93449408 9 43 C9.33 43.99 9.66 44.98 10 46 C10.35191406 45.45730469 10.70382813 44.91460937 11.06640625 44.35546875 C14.56738541 39.28224829 17.11169563 36.8842574 23 35 C18.08720741 31.72480494 16.46280759 33.53904718 12 37 Z M-61 34 C-61 37 -61 37 -61 37 Z M-35 33 C-40.47035213 36.79037089 -44.89962427 40.75027653 -49 46 C-48.67 46.66 -48.34 47.32 -48 48 C-46.35 46.68 -44.7 45.36 -43 44 C-43.42152344 44.83402344 -43.84304687 45.66804688 -44.27734375 46.52734375 C-47.51261206 53.17296547 -49.7488304 58.59049674 -50 66 C-47.84689608 63.23442957 -46.04327497 60.41997374 -44.3125 57.375 C-36.12288807 43.56144403 -36.12288807 43.56144403 -31 41 C-31.63228516 42.28583984 -31.63228516 42.28583984 -32.27734375 43.59765625 C-32.82519531 44.74105469 -33.37304688 45.88445312 -33.9375 47.0625 C-34.75541016 48.75052734 -34.75541016 48.75052734 -35.58984375 50.47265625 C-37.01603277 54.04010413 -37.61664169 57.19068005 -38 61 C-35.66546738 58.0420017 -33.8344565 55.01050596 -32.0625 51.6875 C-29.76862112 47.42008443 -27.42368104 43.19483257 -25 39 C-26.6396875 38.071875 -26.6396875 38.071875 -28.3125 37.125 C-30.6162256 35.82100438 -32.79162049 34.47225301 -35 33 Z M23.484375 42.9765625 C22.17389909 44.9566772 20.94771064 46.82168002 20 49 C20.33 49.66 20.66 50.32 21 51 C21.42410156 50.59007812 21.84820312 50.18015625 22.28515625 49.7578125 C27.32414964 45.12858341 31.43699076 43.40335954 38.3125 42.625 C43.30410062 43.1326204 47.4540817 44.95113541 52 47 C52.66 46.34 53.32 45.68 54 45 C54 44.01 54 43.02 54 42 C52.43979133 41.34865075 50.87671421 40.70417036 49.3125 40.0625 C48.44238281 39.70285156 47.57226562 39.34320313 46.67578125 38.97265625 C38.00991925 35.82258379 29.56970395 35.04054073 23.484375 42.9765625 Z M8 46 C9 48 9 48 9 48 Z M-13 47 C-17.8790212 57.60656783 -17.76477623 68.80379874 -15 80 C-14.67 80 -14.34 80 -14 80 C-13.97494385 79.28457031 -13.9498877 78.56914062 -13.92407227 77.83203125 C-13.80720848 74.5545453 -13.68489577 71.27728384 -13.5625 68 C-13.50352539 66.31197266 -13.50352539 66.31197266 -13.44335938 64.58984375 C-13.21827453 58.66838092 -12.85527916 52.86477138 -12 47 C-12.33 47 -12.66 47 -13 47 Z M-50 48 C-49 50 -49 50 -49 50 Z M-22 49 C-21 51 -21 51 -21 51 Z M32 50 C36 51 36 51 36 51 Z M-52 51 C-51 53 -51 53 -51 53 Z M-23 51 C-32.45219436 66.58152704 -36.9248311 80.45911414 -34 99 C-33.34 100.32 -32.68 101.64 -32 103 C-32 95.41 -32 87.82 -32 80 C-31.34 79.67 -30.68 79.34 -30 79 C-30.0825 80.155 -30.165 81.31 -30.25 82.5 C-30.2337069 92.81353265 -26.96355123 105.48807077 -21 114 C-18.94234756 115.7371843 -18.94234756 115.7371843 -17 117 C-18.90253439 111.14979509 -18.90253439 111.14979509 -21.01953125 105.375 C-28.1271023 87.06035998 -26.36940791 69.7260339 -22 51 C-22.33 51 -22.66 51 -23 51 Z M19 51 C20 53 20 53 20 53 Z M-7 54 C-7 55.98 -7 57.96 -7 60 C-6.67 60 -6.34 60 -6 60 C-6 58.02 -6 56.04 -6 54 C-6.33 54 -6.66 54 -7 54 Z M-39 61 C-38 63 -38 63 -38 63 Z M-8 61 C-8.27990605 68.89957062 -7.51537186 76.2472493 -6 84 C-5.67 84 -5.34 84 -5 84 C-5.11020857 80.91595192 -5.24075814 77.83308808 -5.375 74.75 C-5.4059375 73.87730469 -5.436875 73.00460938 -5.46875 72.10546875 C-5.50742188 71.26113281 -5.54609375 70.41679687 -5.5859375 69.546875 C-5.6173584 68.77182617 -5.6487793 67.99677734 -5.68115234 67.19824219 C-6.03026506 64.79134258 -6.80551104 63.10397705 -8 61 Z M-40 64 C-39 66 -39 66 -39 66 Z M-51 66 C-50 69 -50 69 -50 69 Z M-52 70 C-51 72 -51 72 -51 72 Z M4 74 C3.30393749 86.50979017 5.68549487 94.59409205 14 104 C17.87311212 107.8643692 21.84461283 111.00814587 27 113 C28.485 112.505 28.485 112.505 30 112 C29.50371094 111.64808594 29.00742188 111.29617187 28.49609375 110.93359375 C26.29365136 109.33295725 24.14175936 107.68092225 22 106 C21.40316406 105.53980469 20.80632812 105.07960938 20.19140625 104.60546875 C11.85209528 97.30616423 6.54251503 84.79760523 5 74 C4.67 74 4.34 74 4 74 Z M49 77 C48.34 77.66 47.68 78.32 47 79 C47.99 79 48.98 79 50 79 C49.67 78.34 49.34 77.68 49 77 Z M-14 80 C-13 82 -13 82 -13 82 Z M-5 84 C-4 87 -4 87 -4 87 Z M-19 95 C-19 96.65 -19 98.3 -19 100 C-18.67 100 -18.34 100 -18 100 C-18 98.35 -18 96.7 -18 95 C-18.33 95 -18.66 95 -19 95 Z M33 95 C36.91407857 99.39084256 40.90662791 101.79393023 46.1875 104.3125 C46.91130859 104.67150391 47.63511719 105.03050781 48.38085938 105.40039062 C52.0199909 107.32476481 52.0199909 107.32476481 56 108 C56 108.66 56 109.32 56 110 C54.35 110.33 52.7 110.66 51 111 C54.66004901 113.90926972 58.61384599 116.24289704 62.625 118.625 C63.305625 119.03234375 63.98625 119.4396875 64.6875 119.859375 C68.29301644 122.02106103 68.29301644 122.02106103 72 124 C70.33248852 120.05860922 67.77289351 117.2107188 65 114 C71.52163117 116.96557071 76.75795211 120.0998248 82 125 C81.58195234 118.31123749 76.42929446 113.12990832 71.75 108.75 C65.15589031 103.42565323 57.06023741 101.68181028 48.97265625 99.79296875 C45.17652156 98.78033361 41.65196728 97.34495117 38.05859375 95.76953125 C35.89794023 94.82492534 35.89794023 94.82492534 33 95 Z M-18 100 C-17.54138374 104.30318658 -17.05926838 108.59170674 -16.4375 112.875 C-16 116 -16 116 -16 119 C-12.53330244 122.30545582 -9.60862461 124.50897439 -5 126 C-6.63812533 122.5513151 -8.41321766 119.31506606 -10.5 116.125 C-12.98898032 112.22335517 -14.47300016 108.3628567 -16 104 C-16.64972503 102.65832954 -17.31234808 101.32263263 -18 100 Z M-8 100 C-7 102 -7 102 -7 102 Z M-6 104 C-5.0232882 111.10335856 -0.28202291 117.28578562 5.0625 121.9375 C7.9442942 123.96088741 10.79467122 125.54997031 14 127 C12.6068597 123.74698204 11.05039845 121.96613784 8.3125 119.75 C2.80663605 115.0950423 -1.72537797 109.78935296 -6 104 Z M-54 114 C-53 116 -53 116 -53 116 Z M92 115 C93 117 93 117 93 117 Z M-52 117 C-51 119 -51 119 -51 119 Z M-50 120 C-49.67 120.99 -49.34 121.98 -49 123 C-49 122.01 -49 121.02 -49 120 C-49.33 120 -49.66 120 -50 120 Z M41 122 C45 123 45 123 45 123 Z M47 122 C47 122.66 47 123.32 47 124 C47.66 123.67 48.32 123.34 49 123 C48.34 122.67 47.68 122.34 47 122 Z M82 125 C82.33 125.99 82.66 126.98 83 128 C83 127.01 83 126.02 83 125 C82.67 125 82.34 125 82 125 Z M16 127 C16.33 127.66 16.66 128.32 17 129 C17.66 128.67 18.32 128.34 19 128 C18.01 127.67 17.02 127.34 16 127 Z M56 127 C56.33 127.66 56.66 128.32 57 129 C57.66 128.67 58.32 128.34 59 128 C58.01 127.67 57.02 127.34 56 127 Z M-3 136 C1 137 1 137 1 137 Z M1 137 C5 138 5 138 5 138 Z " fill="#EEC248" transform="translate(201,91)"/>
<path d="M0 0 C0.495 0.433125 0.99 0.86625 1.5 1.3125 C2.16 -0.3375 2.82 -1.9875 3.5 -3.6875 C6.47 -3.6875 9.44 -3.6875 12.5 -3.6875 C13.79335514 -1.10078972 13.62706076 0.76796784 13.62939453 3.66430664 C13.63254669 4.78209 13.63569885 5.89987335 13.63894653 7.05152893 C13.6369223 8.26300095 13.63489807 9.47447296 13.6328125 10.72265625 C13.63376923 11.9604332 13.63472595 13.19821014 13.63571167 14.47349548 C13.63656799 17.7660191 13.63253316 21.0584958 13.62695312 24.35101318 C13.62500057 26.37440488 13.62694773 28.39775326 13.63037109 30.42114258 C13.63652249 34.29250119 13.63580714 38.16379503 13.6328125 42.03515625 C13.63483673 43.2486525 13.63686096 44.46214874 13.63894653 45.7124176 C13.63421829 47.3843644 13.63421829 47.3843644 13.62939453 49.09008789 C13.62859894 50.07666885 13.62780334 51.06324982 13.62698364 52.07972717 C13.5 54.3125 13.5 54.3125 12.5 55.3125 C10.98071962 55.38429964 9.45832518 55.39642007 7.9375 55.375 C7.11121094 55.36597656 6.28492188 55.35695312 5.43359375 55.34765625 C4.79550781 55.33605469 4.15742188 55.32445312 3.5 55.3125 C3.17 53.6625 2.84 52.0125 2.5 50.3125 C1.81292969 50.66183594 1.12585938 51.01117188 0.41796875 51.37109375 C-0.93361328 52.05365234 -0.93361328 52.05365234 -2.3125 52.75 C-3.20582031 53.20246094 -4.09914063 53.65492188 -5.01953125 54.12109375 C-11.04786787 57.01659402 -16.92493302 57.08688084 -23.5 56.3125 C-27.80586806 54.78881097 -31.7666982 52.9579949 -35.5 50.3125 C-35.995 48.8275 -35.995 48.8275 -36.5 47.3125 C-37.16 47.3125 -37.82 47.3125 -38.5 47.3125 C-44.37622911 40.488492 -46.17321782 30.58262698 -45.84765625 21.75 C-44.75674444 14.10135991 -40.98954004 6.74171542 -35.5 1.3125 C-24.72089253 -6.22350209 -11.22168763 -7.57463915 0 0 Z M-28.35546875 8.76171875 C-33.20447677 13.89807539 -35.07610544 19.92134353 -35.9375 26.8125 C-35.13490553 33.23325576 -32.93100133 38.39173461 -28.0625 42.75 C-23.43105985 46.29226673 -19.58538358 47.80517196 -13.6171875 47.625 C-8.40960621 46.85635332 -4.11977162 44.33196691 -0.625 40.4375 C3.72027078 34.04739591 4.34072715 27.88955348 3.5 20.3125 C1.81336924 14.09304908 -0.90841107 9.72958213 -6.5 6.3125 C-14.04834455 3.47860594 -21.81363695 3.65220381 -28.35546875 8.76171875 Z " fill="#EFC347" transform="translate(475.5,151.6875)"/>
<path d="M0 0 C1.47906892 -0.02689216 2.95827483 -0.04634621 4.4375 -0.0625 C5.26121094 -0.07410156 6.08492188 -0.08570312 6.93359375 -0.09765625 C9 0 9 0 10 1 C10.1584265 3.0708472 10.25124422 5.14678029 10.31640625 7.22265625 C10.35830078 8.48271484 10.40019531 9.74277344 10.44335938 11.04101562 C10.48317596 12.38150736 10.52288814 13.7220022 10.5625 15.0625 C10.60568042 16.40691523 10.64929456 17.7513166 10.69335938 19.09570312 C10.79985358 22.3970234 10.9018646 25.69842236 11 29 C11.54269531 28.57847656 12.08539063 28.15695313 12.64453125 27.72265625 C13.35996094 27.17480469 14.07539063 26.62695312 14.8125 26.0625 C15.52019531 25.51722656 16.22789062 24.97195312 16.95703125 24.41015625 C21.80290903 21.06529606 27.34956111 21.47737227 33 22 C40.07118282 23.75106578 45.13449375 27.87126989 49 34 C51.64392274 39.99702054 52.42757945 44.76360424 52.328125 51.27734375 C52.32625183 52.12929825 52.32437866 52.98125275 52.32244873 53.85902405 C52.31577237 55.64311694 52.30194701 57.42719631 52.28125 59.21118164 C52.24981 61.9540757 52.24024512 64.69639587 52.234375 67.43945312 C52.22521528 69.17709041 52.21484282 70.91472183 52.203125 72.65234375 C52.19675018 73.88657326 52.19675018 73.88657326 52.19024658 75.14573669 C52.1172331 80.8827669 52.1172331 80.8827669 51 82 C49.48071962 82.07179964 47.95832518 82.08392007 46.4375 82.0625 C45.19806641 82.04896484 45.19806641 82.04896484 43.93359375 82.03515625 C42.97646484 82.01775391 42.97646484 82.01775391 42 82 C41.970271 80.57905029 41.970271 80.57905029 41.93994141 79.12939453 C41.86121768 75.56942949 41.77450803 72.00983574 41.68261719 68.45019531 C41.64465122 66.91804323 41.6097459 65.38581179 41.578125 63.85351562 C41.88670069 49.21702537 41.88670069 49.21702537 36.875 36 C32.58216198 33.0136779 28.92753926 31.56991076 23.66015625 32.34375 C18.02507608 33.91894712 15.22616174 36.16075739 12 41 C10.73605771 44.79182686 10.78663968 48.39729066 10.71875 52.3515625 C10.70034058 53.16619965 10.68193115 53.98083679 10.66296387 54.82015991 C10.5842527 58.30705611 10.51634224 61.79414223 10.44775391 65.28125 C10.396166 67.82562218 10.33888092 70.36982122 10.28125 72.9140625 C10.26767456 73.70881989 10.25409912 74.50357727 10.2401123 75.32241821 C10.11285189 80.88714811 10.11285189 80.88714811 9 82 C7.48071962 82.07179964 5.95832518 82.08392007 4.4375 82.0625 C3.19806641 82.04896484 3.19806641 82.04896484 1.93359375 82.03515625 C0.97646484 82.01775391 0.97646484 82.01775391 0 82 C-1.15479511 78.32728015 -1.12695889 74.86491766 -1.12939453 71.03173828 C-1.13114685 70.33853485 -1.13289917 69.64533142 -1.13470459 68.93112183 C-1.13909834 66.64415976 -1.13619319 64.35727533 -1.1328125 62.0703125 C-1.1334864 60.47614528 -1.13445715 58.88197815 -1.13571167 57.28781128 C-1.13718542 53.94723532 -1.13504502 50.60668612 -1.13037109 47.26611328 C-1.12468326 42.99353458 -1.12794886 38.72101883 -1.13394356 34.44844246 C-1.13756578 31.15582815 -1.13640279 27.86322863 -1.13381577 24.57061386 C-1.13315061 22.99581774 -1.13396049 21.42102027 -1.13629532 19.84622574 C-1.1388481 17.63979819 -1.13494399 15.43347091 -1.12939453 13.22705078 C-1.12859894 11.973367 -1.12780334 10.71968323 -1.12698364 9.42800903 C-1.00724082 6.19547083 -0.61239324 3.17244699 0 0 Z " fill="#F0C647" transform="translate(373,125)"/>
<path d="M0 0 C6.27023157 3.50893722 10.67950673 9.06329597 12.6875 16 C13.65155425 20.7520391 13.83368185 25.37587433 13.8203125 30.20703125 C13.82126923 30.97303146 13.82222595 31.73903168 13.82321167 32.52824402 C13.82388863 34.13593631 13.82206829 35.74363141 13.81787109 37.35131836 C13.81247891 39.82216422 13.81785124 42.29283134 13.82421875 44.76367188 C13.82355861 46.3281254 13.82227876 47.89257882 13.8203125 49.45703125 C13.82233673 50.19862991 13.82436096 50.94022858 13.82644653 51.70429993 C13.80247642 56.88502358 13.80247642 56.88502358 12.6875 58 C6.8830819 59.01346983 6.8830819 59.01346983 4.6875 59 C1.65952931 55.97202931 2.38941428 52.51028634 2.37890625 48.44921875 C2.35373979 46.70116863 2.32834186 44.95312184 2.30273438 43.20507812 C2.27401922 40.44670518 2.25000607 37.68839011 2.23120117 34.92993164 C2.20950868 32.26938335 2.17005854 29.60952688 2.12890625 26.94921875 C2.12879044 26.12822189 2.12867462 25.30722504 2.1285553 24.46134949 C2.04716955 19.73897892 1.50825069 16.95728264 -1.3125 13 C-1.3125 12.34 -1.3125 11.68 -1.3125 11 C-8.02403705 8.78553346 -13.68325733 6.96493239 -20.40234375 9.8671875 C-23.72036355 11.8349293 -25.3698006 13.66098541 -27.3125 17 C-29.05181795 25.30073083 -28.3969818 34.13544087 -28.3125 42.5625 C-28.28596243 45.27217557 -28.266058 47.98161851 -28.25 50.69140625 C-28.23839844 51.87935791 -28.22679687 53.06730957 -28.21484375 54.29125977 C-28.3125 57 -28.3125 57 -29.3125 58 C-30.80988124 58.0979057 -32.31192892 58.12974864 -33.8125 58.125 C-34.6271875 58.12757813 -35.441875 58.13015625 -36.28125 58.1328125 C-38.3125 58 -38.3125 58 -39.3125 57 C-39.40626053 55.18944975 -39.4299411 53.37522799 -39.42602539 51.56225586 C-39.42594986 50.40112778 -39.42587433 49.23999969 -39.42579651 48.04368591 C-39.42063522 46.780168 -39.41547394 45.51665009 -39.41015625 44.21484375 C-39.4087413 42.92888809 -39.40732635 41.64293243 -39.40586853 40.31800842 C-39.40204418 36.89356557 -39.39221462 33.46916491 -39.38116455 30.04473877 C-39.37094864 26.55261811 -39.36637053 23.06049066 -39.36132812 19.56835938 C-39.35059227 12.71222222 -39.33351684 5.85611313 -39.3125 -1 C-36.0125 -1 -32.7125 -1 -29.3125 -1 C-28.6525 0.98 -27.9925 2.96 -27.3125 5 C-26.425625 4.21625 -25.53875 3.4325 -24.625 2.625 C-17.63123166 -3.55553946 -8.27557033 -3.71275587 0 0 Z " fill="#EEC247" transform="translate(626.3125,149)"/>
<path d="M0 0 C1.47906892 -0.02689216 2.95827483 -0.04634621 4.4375 -0.0625 C5.26121094 -0.07410156 6.08492187 -0.08570313 6.93359375 -0.09765625 C9 0 9 0 10 1 C10.12320971 3.65530285 10.18613894 6.2885827 10.2109375 8.9453125 C10.23902808 10.59636371 10.26769266 12.24740523 10.296875 13.8984375 C10.33798809 16.50520328 10.37486574 19.11179254 10.40136719 21.71875 C10.4291449 24.23215428 10.47503983 26.74473159 10.5234375 29.2578125 C10.52669037 30.02787628 10.52994324 30.79794006 10.53329468 31.59133911 C10.64945234 36.75897793 11.59028599 40.40410894 14 45 C17.58226687 48.40315353 20.23997508 49.82744854 25.1875 50.3125 C29.74702191 49.9387687 33.50776814 49.05300269 37 46 C40.64483599 40.41287581 41.59914917 35.48061917 41.609375 28.90625 C41.62591125 28.07411987 41.64244751 27.24198975 41.65948486 26.38464355 C41.70763046 23.75635148 41.7292603 21.12863646 41.75 18.5 C41.7781878 16.70570065 41.80811912 14.9114278 41.83984375 13.1171875 C41.91337973 8.74483926 41.96315766 4.3728051 42 0 C45.3 0 48.6 0 52 0 C52 19.47 52 38.94 52 59 C48.7 59 45.4 59 42 59 C41.505 56.03 41.505 56.03 41 53 C40.18595703 53.63228516 40.18595703 53.63228516 39.35546875 54.27734375 C38.64003906 54.82519531 37.92460938 55.37304688 37.1875 55.9375 C36.47980469 56.48277344 35.77210938 57.02804688 35.04296875 57.58984375 C30.20815863 60.9270645 24.63989923 60.542878 19 60 C11.61559464 57.91605738 6.65862058 53.98209884 2.75 47.375 C0.82257708 43.65782723 -0.12622098 41.02181712 -0.11352539 36.89575195 C-0.11344986 36.07512772 -0.11337433 35.25450348 -0.11329651 34.40901184 C-0.10813522 33.52767075 -0.10297394 32.64632965 -0.09765625 31.73828125 C-0.0962413 30.83248825 -0.09482635 29.92669525 -0.09336853 28.99345398 C-0.08777001 26.09976909 -0.07521781 23.20616151 -0.0625 20.3125 C-0.05748481 18.35091258 -0.05292193 16.38932394 -0.04882812 14.42773438 C-0.03780107 9.61845979 -0.02053747 4.809243 0 0 Z " fill="#ECC65F" transform="translate(530,148)"/>
<path d="M0 0 C1.1576738 -0.00315216 2.3153476 -0.00630432 3.50810242 -0.009552 C5.37544792 -0.00651566 5.37544792 -0.00651566 7.28051758 -0.00341797 C9.19952629 -0.00485306 9.19952629 -0.00485306 11.15730286 -0.00631714 C13.85976371 -0.00778898 16.56219144 -0.005655 19.26464844 -0.00097656 C22.73508667 0.0047376 26.20544785 0.00142787 29.67588329 -0.00454903 C32.98159754 -0.00902 36.28730233 -0.00589563 39.59301758 -0.00341797 C40.84398727 -0.0054422 42.09495697 -0.00746643 43.38383484 -0.009552 C44.53205215 -0.00639984 45.68026947 -0.00324768 46.86328125 0 C48.38739876 0.00119339 48.38739876 0.00119339 49.94230652 0.00241089 C52.23754883 0.12939453 52.23754883 0.12939453 53.23754883 1.12939453 C53.23754883 4.09939453 53.23754883 7.06939453 53.23754883 10.12939453 C44.65754883 10.45939453 36.07754883 10.78939453 27.23754883 11.12939453 C27.24278564 13.08796387 27.24802246 15.0465332 27.25341797 17.06445312 C27.26952547 23.52650316 27.28102563 29.98854846 27.289361 36.45061302 C27.29458561 40.36959324 27.30167563 44.28855179 27.31298828 48.20751953 C27.32383212 51.9876184 27.32982885 55.76769639 27.33242607 59.5478096 C27.33427761 60.99194289 27.33789307 62.436075 27.34327888 63.88019943 C27.35050903 65.8986373 27.35095705 67.91709606 27.35107422 69.93554688 C27.35329483 71.08582367 27.35551544 72.23610046 27.35780334 73.42123413 C27.23754883 76.12939453 27.23754883 76.12939453 26.23754883 78.12939453 C24.75847991 78.15628669 23.279274 78.17574075 21.80004883 78.19189453 C20.56448242 78.20929688 20.56448242 78.20929688 19.30395508 78.22705078 C17.23754883 78.12939453 17.23754883 78.12939453 16.23754883 77.12939453 C16.1433711 75.04320431 16.12012005 72.95378976 16.12402344 70.86547852 C16.12387741 70.21184326 16.12373138 69.55820801 16.12358093 68.88476562 C16.12428 66.71497325 16.13207205 64.54526574 16.13989258 62.37548828 C16.14175678 60.87476142 16.14318067 59.37403396 16.1441803 57.87330627 C16.1480053 53.91621227 16.15783543 49.95915475 16.16888428 46.0020752 C16.17909877 41.96704604 16.183678 37.93201101 16.1887207 33.89697266 C16.19945772 25.97442984 16.21653393 18.05191672 16.23754883 10.12939453 C15.48546143 10.16492432 14.73337402 10.2004541 13.95849609 10.23706055 C10.57257029 10.39402747 7.18634171 10.54306668 3.80004883 10.69189453 C2.61604492 10.74796875 1.43204102 10.80404297 0.2121582 10.86181641 C-0.91254883 10.91015625 -2.03725586 10.95849609 -3.19604492 11.00830078 C-4.23817139 11.05543213 -5.28029785 11.10256348 -6.35400391 11.15112305 C-8.76245117 11.12939453 -8.76245117 11.12939453 -9.76245117 10.12939453 C-9.83425081 8.61011415 -9.84637124 7.08771971 -9.82495117 5.56689453 C-9.81592773 4.74060547 -9.8069043 3.91431641 -9.79760742 3.06298828 C-9.78600586 2.42490234 -9.7744043 1.78681641 -9.76245117 1.12939453 C-6.45195761 0.13632964 -3.44882656 0.00269412 0 0 Z " fill="#F0C646" transform="translate(313.762451171875,128.87060546875)"/>
<path d="M0 0 C0 3.3 0 6.6 0 10 C-0.79664063 10.20753906 -1.59328125 10.41507813 -2.4140625 10.62890625 C-8.53495835 12.40858278 -12.93353702 13.93318977 -16.9140625 19.0234375 C-19.69702155 24.0888234 -20.2689452 28.83316011 -20.37890625 34.55078125 C-20.39590073 35.25019333 -20.4128952 35.94960541 -20.43040466 36.67021179 C-20.48315337 38.88421839 -20.52369507 41.09820865 -20.5625 43.3125 C-20.60643528 45.54455633 -20.65304148 47.77646933 -20.70530701 50.00834656 C-20.75175631 52.02016301 -20.78930235 54.03217913 -20.82641602 56.04418945 C-21 59 -21 59 -22 60 C-23.51928038 60.07179964 -25.04167482 60.08392007 -26.5625 60.0625 C-27.38878906 60.05347656 -28.21507812 60.04445312 -29.06640625 60.03515625 C-29.70449219 60.02355469 -30.34257812 60.01195312 -31 60 C-32.02284681 56.93145958 -32.12675192 54.83971246 -32.12939453 51.62646484 C-32.13254669 50.52877777 -32.13569885 49.4310907 -32.13894653 48.30014038 C-32.1369223 47.11570343 -32.13489807 45.93126648 -32.1328125 44.7109375 C-32.13424759 42.88968857 -32.13424759 42.88968857 -32.13571167 41.03164673 C-32.13639252 38.46445667 -32.13454486 35.89726488 -32.13037109 33.33007812 C-32.12501232 29.38407563 -32.13032409 25.43818649 -32.13671875 21.4921875 C-32.13605813 19.00260391 -32.13477731 16.5130204 -32.1328125 14.0234375 C-32.13483673 12.83495209 -32.13686096 11.64646667 -32.13894653 10.42196655 C-32.13579437 9.3305838 -32.13264221 8.23920105 -32.12939453 7.11474609 C-32.12859894 6.14894623 -32.12780334 5.18314636 -32.12698364 4.18807983 C-32 2 -32 2 -31 1 C-29.50261876 0.9020943 -28.00057108 0.87025136 -26.5 0.875 C-25.6853125 0.87242187 -24.870625 0.86984375 -24.03125 0.8671875 C-22 1 -22 1 -21 2 C-20.63239269 4.32817964 -20.29758419 6.6618385 -20 9 C-19.57589844 8.60167969 -19.15179688 8.20335937 -18.71484375 7.79296875 C-12.98242816 2.61489664 -8.05958624 -0.58972582 0 0 Z M-22 11 C-21 13 -21 13 -21 13 Z " fill="#EEC349" transform="translate(525,147)"/>
<path d="M0 0 C2.64 0 5.28 0 8 0 C8 18.81 8 37.62 8 57 C5.36 57 2.72 57 0 57 C-0.12117187 56.36191406 -0.24234375 55.72382813 -0.3671875 55.06640625 C-0.61855469 53.82697266 -0.61855469 53.82697266 -0.875 52.5625 C-1.11863281 51.32693359 -1.11863281 51.32693359 -1.3671875 50.06640625 C-1.57601562 49.38449219 -1.78484375 48.70257813 -2 48 C-2.66 47.67 -3.32 47.34 -4 47 C-4 46.01 -4 45.02 -4 44 C-3.34 44 -2.68 44 -2 44 C-1.22810213 41.23966789 -0.8580942 38.73682385 -0.79467773 35.87402344 C-0.77473251 35.07349548 -0.75478729 34.27296753 -0.73423767 33.44818115 C-0.71752518 32.59387512 -0.70081268 31.73956909 -0.68359375 30.859375 C-0.66281265 29.97719299 -0.64203156 29.09501099 -0.62062073 28.18609619 C-0.55535133 25.37414169 -0.49634553 22.56209555 -0.4375 19.75 C-0.39429327 17.84113644 -0.35067829 15.93228207 -0.30664062 14.0234375 C-0.19969313 9.34905174 -0.09836215 4.67457398 0 0 Z " fill="#F0C243" transform="translate(573,149)"/>
<path d="M0 0 C2.97 0 5.94 0 9 0 C9.01981934 1.27117676 9.03963867 2.54235352 9.06005859 3.85205078 C9.13630886 8.58222783 9.22499629 13.31210505 9.31738281 18.04199219 C9.35559239 20.08652819 9.3904591 22.13112957 9.421875 24.17578125 C9.46769987 27.12002886 9.5256656 30.06382948 9.5859375 33.0078125 C9.59748871 33.9174173 9.60903992 34.82702209 9.62094116 35.76419067 C9.73061155 40.51336852 10.01304434 44.59268341 12 49 C12.66 49.33 13.32 49.66 14 50 C13.01 51.32 12.02 52.64 11 54 C8.671875 53.7734375 8.671875 53.7734375 6 53 C4.453125 51.0390625 4.453125 51.0390625 3.25 48.625 C2.84265625 47.83351562 2.4353125 47.04203125 2.015625 46.2265625 C0.5363879 42.98361963 -0.12438699 40.42577288 -0.11352539 36.89575195 C-0.11344986 36.07512772 -0.11337433 35.25450348 -0.11329651 34.40901184 C-0.10813522 33.52767075 -0.10297394 32.64632965 -0.09765625 31.73828125 C-0.0962413 30.83248825 -0.09482635 29.92669525 -0.09336853 28.99345398 C-0.08777001 26.09976909 -0.07521781 23.20616151 -0.0625 20.3125 C-0.05748481 18.35091258 -0.05292193 16.38932394 -0.04882812 14.42773438 C-0.03780107 9.61845979 -0.02053747 4.809243 0 0 Z " fill="#F0C448" transform="translate(530,148)"/>
<path d="M0 0 C0.66 0 1.32 0 2 0 C4.62740668 2.62740668 6.38533269 4.6630209 8 8 C8.33 8.33 8.66 8.66 9 9 C9.08843793 11.44830426 9.11528752 13.86820599 9.09765625 16.31640625 C9.0962413 17.04746078 9.09482635 17.77851532 9.09336853 18.53172302 C9.08775408 20.87535632 9.07519922 23.21889539 9.0625 25.5625 C9.05748686 27.14778508 9.05292363 28.73307166 9.04882812 30.31835938 C9.03777997 34.2122761 9.02050572 38.10612205 9 42 C6.36 42 3.72 42 1 42 C0.505 21.21 0.505 21.21 0 0 Z " fill="#F0C243" transform="translate(630,163)"/>
<path d="M0 0 C0.02468646 4.66308199 0.04285349 9.32612608 0.05493164 13.98925781 C0.05996588 15.57617861 0.06679369 17.16309477 0.07543945 18.75 C0.08754482 21.02865749 0.09323733 23.30725376 0.09765625 25.5859375 C0.10281754 26.29744965 0.10797882 27.00896179 0.11329651 27.74203491 C0.11387171 32.77225659 0.11387171 32.77225659 -1 35 C-6.75 35.125 -6.75 35.125 -9 34 C-9.59355614 31.35139573 -9.74209269 28.70802678 -10 26 C-9.34 26.33 -8.68 26.66 -8 27 C-6.92375586 21.55547082 -6.67807034 16.15417411 -6.4375 10.625 C-6.39431641 9.69816406 -6.35113281 8.77132812 -6.30664062 7.81640625 C-6.20123814 5.54439706 -6.09911394 3.27229075 -6 1 C-3 0 -3 0 0 0 Z " fill="#EFC245" transform="translate(382,171)"/>
<path d="M0 0 C2.97769702 3.1071621 3.28320541 5.70762164 3.71484375 9.8984375 C4.2134021 13.57274421 4.98782284 15.81946191 7 19 C9.79804722 19.92899591 12.0004941 19.95082777 15 20 C15.33 19.01 15.66 18.02 16 17 C16.721875 17.61875 17.44375 18.2375 18.1875 18.875 C22.64041254 22.23942281 26.21386625 23.47684813 31.8828125 23.31640625 C38.24131147 22.36615087 42.84715338 18.67195245 47 14 C47 15.32 47 16.64 47 18 C46.34 18 45.68 18 45 18 C44.67 19.98 44.34 21.96 44 24 C41.03 24 38.06 24 35 24 C35 24.66 35 25.32 35 26 C29.20746468 26.23643001 24.5905993 25.7201844 19 24 C17.33372702 23.96377667 15.66594626 23.95100158 14 24 C13.67 23.67 13.34 23.34 13 23 C12.67 23.99 12.34 24.98 12 26 C12.66 26 13.32 26 14 26 C14 26.66 14 27.32 14 28 C14.99 28 15.98 28 17 28 C17.33 27.01 17.66 26.02 18 25 C19.32 26.32 20.64 27.64 22 29 C21.01 29 20.02 29 19 29 C19 29.66 19 30.32 19 31 C15.12697862 29.85569823 11.99736561 28.76679902 9 26 C9 25.34 9 24.68 9 24 C8.34 24 7.68 24 7 24 C1.34456957 17.43240338 -0.25237176 8.47969105 0 0 Z " fill="#F2C54B" transform="translate(430,175)"/>
<path d="M0 0 C1.1576738 -0.00315216 2.3153476 -0.00630432 3.50810242 -0.009552 C5.37544792 -0.00651566 5.37544792 -0.00651566 7.28051758 -0.00341797 C9.19952629 -0.00485306 9.19952629 -0.00485306 11.15730286 -0.00631714 C13.85976371 -0.00778898 16.56219144 -0.005655 19.26464844 -0.00097656 C22.73508667 0.0047376 26.20544785 0.00142787 29.67588329 -0.00454903 C32.98159754 -0.00902 36.28730233 -0.00589563 39.59301758 -0.00341797 C40.84398727 -0.0054422 42.09495697 -0.00746643 43.38383484 -0.009552 C44.53205215 -0.00639984 45.68026947 -0.00324768 46.86328125 0 C48.38739876 0.00119339 48.38739876 0.00119339 49.94230652 0.00241089 C52.23754883 0.12939453 52.23754883 0.12939453 53.23754883 1.12939453 C53.23754883 4.09939453 53.23754883 7.06939453 53.23754883 10.12939453 C44.65754883 10.12939453 36.07754883 10.12939453 27.23754883 10.12939453 C27.23754883 9.79939453 27.23754883 9.46939453 27.23754883 9.12939453 C35.48754883 9.12939453 43.73754883 9.12939453 52.23754883 9.12939453 C51.74254883 5.66439453 51.74254883 5.66439453 51.23754883 2.12939453 C50.52838821 2.29394638 49.8192276 2.45849823 49.08857727 2.6280365 C46.17765635 3.13992672 43.57330959 3.21220337 40.62109375 3.15112305 C39.52033005 3.13102676 38.41956635 3.11093048 37.28544617 3.09022522 C36.10819473 3.06319016 34.9309433 3.03615509 33.71801758 3.00830078 C31.89745598 2.97288429 31.89745598 2.97288429 30.04011536 2.93675232 C26.1683034 2.86025535 22.29669851 2.77617044 18.42504883 2.69189453 C15.79810579 2.6386599 13.17115269 2.58591959 10.54418945 2.53369141 C4.10851481 2.40465903 -2.32700636 2.26939838 -8.76245117 2.12939453 C-8.76245117 4.43939453 -8.76245117 6.74939453 -8.76245117 9.12939453 C-0.51245117 9.12939453 7.73754883 9.12939453 16.23754883 9.12939453 C16.23754883 9.45939453 16.23754883 9.78939453 16.23754883 10.12939453 C12.09206468 10.32523369 7.94615213 10.50967295 3.80004883 10.69189453 C2.61604492 10.74796875 1.43204102 10.80404297 0.2121582 10.86181641 C-0.91254883 10.91015625 -2.03725586 10.95849609 -3.19604492 11.00830078 C-4.23817139 11.05543213 -5.28029785 11.10256348 -6.35400391 11.15112305 C-8.76245117 11.12939453 -8.76245117 11.12939453 -9.76245117 10.12939453 C-9.83425081 8.61011415 -9.84637124 7.08771971 -9.82495117 5.56689453 C-9.81592773 4.74060547 -9.8069043 3.91431641 -9.79760742 3.06298828 C-9.78600586 2.42490234 -9.7744043 1.78681641 -9.76245117 1.12939453 C-6.45195761 0.13632964 -3.44882656 0.00269412 0 0 Z " fill="#EDC969" transform="translate(313.762451171875,128.87060546875)"/>
<path d="M0 0 C0.70863964 2.12591892 1.34787618 4.27554599 1.9375 6.4375 C3.37758217 11.36628584 3.37758217 11.36628584 6.3984375 15.37890625 C8.04623159 17.04679539 9.34671624 18.76691786 10.6875 20.6875 C11.12449219 21.31011719 11.56148437 21.93273437 12.01171875 22.57421875 C12.50091797 23.27998047 12.50091797 23.27998047 13 24 C6.89387166 24 1.51557086 18.69413009 -2.75 14.625 C-11 5.99038462 -11 5.99038462 -11 1 C-10.34 1 -9.68 1 -9 1 C-8.67 1.66 -8.34 2.32 -8 3 C-6.68 3 -5.36 3 -4 3 C-4 2.34 -4 1.68 -4 1 C-2.68 0.67 -1.36 0.34 0 0 Z M-2 4 C-1 6 -1 6 -1 6 Z M0 7 C1 9 1 9 1 9 Z " fill="#EDC454" transform="translate(149,201)"/>
<path d="M0 0 C1.10601563 0.00483398 1.10601563 0.00483398 2.234375 0.00976562 C2.97171875 -0.00634766 3.7090625 -0.02246094 4.46875 -0.0390625 C6.609375 -0.04101562 6.609375 -0.04101562 10.234375 0.32226562 C10.894375 1.31226563 11.554375 2.30226562 12.234375 3.32226562 C11.244375 3.65226563 10.254375 3.98226562 9.234375 4.32226562 C8.53499968 5.63873681 7.86708367 6.97248714 7.234375 8.32226562 C3.9513652 9.96377052 0.80892467 8.84115187 -2.765625 8.32226562 C-3.095625 7.33226562 -3.425625 6.34226563 -3.765625 5.32226562 C-4.425625 5.32226562 -5.085625 5.32226562 -5.765625 5.32226562 C-5.765625 4.66226563 -5.765625 4.00226563 -5.765625 3.32226562 C-6.425625 2.99226562 -7.085625 2.66226563 -7.765625 2.32226562 C-5.2145216 -0.22883778 -3.48625418 0.03498978 0 0 Z " fill="#F0C245" transform="translate(553.765625,198.677734375)"/>
<path d="M0 0 C-1.75 4.875 -1.75 4.875 -4 6 C-6.55157655 6.0716735 -9.07472971 6.09308442 -11.625 6.0625 C-12.33140625 6.05798828 -13.0378125 6.05347656 -13.765625 6.04882812 C-15.51045275 6.03703875 -17.255237 6.01910324 -19 6 C-19.33 4.35 -19.66 2.7 -20 1 C-13.98824959 -2.50454574 -6.58684402 -1.38670401 0 0 Z " fill="#F0C245" transform="translate(468,149)"/>
<path d="M0 0 C0.66 0.66 1.32 1.32 2 2 C1.57847656 2.78503906 1.15695313 3.57007813 0.72265625 4.37890625 C-3.57292584 12.29242816 -3.57292584 12.29242816 -5 21 C-4.649375 21.680625 -4.29875 22.36125 -3.9375 23.0625 C-3 25 -3 25 -3.75 28.125 C-5 31 -5 31 -7 33 C-8.73783825 30.39324263 -9.50215905 28.98704569 -10 26 C-9.67 25.67 -9.34 25.34 -9 25 C-7.9257187 20.38815136 -7.9257187 20.38815136 -9 16 C-9 9.36688634 -4.4776301 4.4776301 0 0 Z M-7 23 C-6 26 -6 26 -6 26 Z M-8 27 C-7 29 -7 29 -7 29 Z " fill="#ECC356" transform="translate(157,134)"/>
<path d="M0 0 C0.33 0 0.66 0 1 0 C1.94057007 4.75749121 2.14618522 9.37465622 2.1328125 14.20703125 C2.13376923 14.97303146 2.13472595 15.73903168 2.13571167 16.52824402 C2.13638863 18.13593631 2.13456829 19.74363141 2.13037109 21.35131836 C2.12497891 23.82216422 2.13035124 26.29283134 2.13671875 28.76367188 C2.13605861 30.3281254 2.13477876 31.89257882 2.1328125 33.45703125 C2.13483673 34.19862991 2.13686096 34.94022858 2.13894653 35.70429993 C2.11497642 40.88502358 2.11497642 40.88502358 1 42 C-4.8044181 43.01346983 -4.8044181 43.01346983 -7 43 C-9 41 -9 41 -9.22705078 37.19287109 C-9.22673346 35.5530258 -9.21539681 33.91315983 -9.1953125 32.2734375 C-9.1924826 31.41062164 -9.18965271 30.54780579 -9.18673706 29.65884399 C-9.17552333 26.8974228 -9.15041684 24.1363235 -9.125 21.375 C-9.11497173 19.50521301 -9.10584562 17.63542095 -9.09765625 15.765625 C-9.07558012 11.17695891 -9.04104234 6.58853407 -9 2 C-8.67 2 -8.34 2 -8 2 C-7.67 14.54 -7.34 27.08 -7 40 C-4.36 40 -1.72 40 1 40 C0.88188019 35.33673618 0.75764134 30.6736912 0.62768555 26.01074219 C0.58432759 24.42387343 0.54265313 22.83695776 0.50268555 21.25 C0.44500368 18.97121021 0.38130362 16.69265678 0.31640625 14.4140625 C0.29969376 13.70255035 0.28298126 12.99103821 0.26576233 12.25796509 C0.20278063 8.50339183 0.20278063 8.50339183 -1 5 C-0.72057545 3.32345271 -0.39171753 1.65391846 0 0 Z " fill="#E0C06B" transform="translate(638,165)"/>
<path d="M0 0 C2.97 0 5.94 0 9 0 C10.29335514 2.58671028 10.12706076 4.45546784 10.12939453 7.35180664 C10.13254669 8.46959 10.13569885 9.58737335 10.13894653 10.73902893 C10.1369223 11.95050095 10.13489807 13.16197296 10.1328125 14.41015625 C10.13376923 15.6479332 10.13472595 16.88571014 10.13571167 18.16099548 C10.13656799 21.4535191 10.13253316 24.7459958 10.12695312 28.03851318 C10.12500057 30.06190488 10.12694773 32.08525326 10.13037109 34.10864258 C10.13652249 37.98000119 10.13580714 41.85129503 10.1328125 45.72265625 C10.13483673 46.9361525 10.13686096 48.14964874 10.13894653 49.3999176 C10.13579437 50.5145488 10.13264221 51.62917999 10.12939453 52.77758789 C10.12820114 54.25745934 10.12820114 54.25745934 10.12698364 55.76722717 C10 58 10 58 9 59 C7.48071962 59.07179964 5.95832518 59.08392007 4.4375 59.0625 C3.61121094 59.05347656 2.78492188 59.04445312 1.93359375 59.03515625 C1.29550781 59.02355469 0.65742188 59.01195312 0 59 C-0.33 58.34 -0.66 57.68 -1 57 C1.97 57.33 4.94 57.66 8 58 C8 39.52 8 21.04 8 2 C5.03 1.505 5.03 1.505 2 1 C2 3.64 2 6.28 2 9 C1.01 9 0.02 9 -1 9 C-1.66 7.68 -2.32 6.36 -3 5 C-2.34 4.67 -1.68 4.34 -1 4 C-0.67 2.68 -0.34 1.36 0 0 Z " fill="#E9C66A" transform="translate(479,148)"/>
<path d="M0 0 C1.47906892 -0.02689216 2.95827483 -0.04634621 4.4375 -0.0625 C5.26121094 -0.07410156 6.08492188 -0.08570312 6.93359375 -0.09765625 C9 0 9 0 10 1 C10.15873955 3.21687994 10.25133837 5.43855298 10.31640625 7.66015625 C10.33718735 8.32462265 10.35796844 8.98908905 10.37937927 9.6736908 C10.44493658 11.80318543 10.50378785 13.93280668 10.5625 16.0625 C10.60567939 17.50326847 10.64929349 18.94402399 10.69335938 20.38476562 C10.80062393 23.9230404 10.90187371 27.46145869 11 31 C10.34 31.33 9.68 31.66 9 32 C7.63160637 29.26321275 7.78365182 26.95735576 7.68359375 23.8984375 C7.64169922 22.68671875 7.59980469 21.475 7.55664062 20.2265625 C7.51732422 18.95554688 7.47800781 17.68453125 7.4375 16.375 C7.39431641 15.09625 7.35113281 13.8175 7.30664062 12.5 C7.20030114 9.33344652 7.09827167 6.16681247 7 3 C5.35 2.67 3.7 2.34 2 2 C1.34 7.61 0.68 13.22 0 19 C-0.33 19 -0.66 19 -1 19 C-1.0272616 16.95840905 -1.04651345 14.91671037 -1.0625 12.875 C-1.07410156 11.73804688 -1.08570313 10.60109375 -1.09765625 9.4296875 C-1.005327 6.1870844 -0.61389906 3.18067388 0 0 Z " fill="#EDC865" transform="translate(373,125)"/>
<path d="M0 0 C3.3 0 6.6 0 10 0 C10 0.33 10 0.66 10 1 C7.03 1 4.06 1 1 1 C1.33 19.48 1.66 37.96 2 57 C6.455 56.505 6.455 56.505 11 56 C10.67 56.99 10.34 57.98 10 59 C8.52093108 59.02689216 7.04172517 59.04634621 5.5625 59.0625 C4.73878906 59.07410156 3.91507813 59.08570313 3.06640625 59.09765625 C1 59 1 59 0 58 C-0.09376053 56.18944975 -0.1174411 54.37522799 -0.11352539 52.56225586 C-0.11344986 51.40112778 -0.11337433 50.23999969 -0.11329651 49.04368591 C-0.10813522 47.780168 -0.10297394 46.51665009 -0.09765625 45.21484375 C-0.0962413 43.92888809 -0.09482635 42.64293243 -0.09336853 41.31800842 C-0.08954418 37.89356557 -0.07971462 34.46916491 -0.06866455 31.04473877 C-0.05844864 27.55261811 -0.05387053 24.06049066 -0.04882812 20.56835938 C-0.03809227 13.71222222 -0.02101684 6.85611313 0 0 Z " fill="#DEC26E" transform="translate(587,148)"/>
<path d="M0 0 C0.09944115 3.48044019 0.07999732 6.67000827 -1 10 C-2.75 11.0625 -2.75 11.0625 -5 12 C-7.9968237 14.2119413 -9.92067404 15.88101106 -12 19 C-12.66 19 -13.32 19 -14 19 C-13.46481073 14.54008938 -11.80404811 11.93725078 -9.125 8.375 C-8.42632812 7.43398437 -7.72765625 6.49296875 -7.0078125 5.5234375 C-2.6130031 0 -2.6130031 0 0 0 Z " fill="#EEC451" transform="translate(150,110)"/>
<path d="M0 0 C0.33 0 0.66 0 1 0 C1.02464849 5.39346988 1.04283531 10.78690725 1.05493164 16.18041992 C1.05997231 18.01668875 1.06680477 19.85295354 1.07543945 21.68920898 C1.08751672 24.32276401 1.09323081 26.95626616 1.09765625 29.58984375 C1.10281754 30.41588608 1.10797882 31.24192841 1.11329651 32.09300232 C1.11349205 34.06236368 1.06204152 36.03161614 1 38 C0 39 0 39 -2.06640625 39.09765625 C-5.53320312 39.04882812 -5.53320312 39.04882812 -9 39 C-9 34.05 -9 29.1 -9 24 C-8.34 24 -7.68 24 -7 24 C-7 28.29 -7 32.58 -7 37 C-5.02 37 -3.04 37 -1 37 C-0.67 24.79 -0.34 12.58 0 0 Z " fill="#E9C66E" transform="translate(424,168)"/>
<path d="M0 0 C2.72503243 0.96694699 3.78340685 1.57884666 5.125 4.1875 C4.92829795 8.61329607 2.02073756 10.96175092 -1 14 C-2.921875 13.62890625 -2.921875 13.62890625 -5 13 C-6.25 10.9375 -6.25 10.9375 -7 9 C-6.01 9 -5.02 9 -4 9 C-3.87625 8.38125 -3.7525 7.7625 -3.625 7.125 C-3 5 -3 5 -1 3 C-0.67 2.01 -0.34 1.02 0 0 Z " fill="#EFC143" transform="translate(202,181)"/>
<path d="M0 0 C0.66 0.33 1.32 0.66 2 1 C2 1.66 2 2.32 2 3 C2.825 3.66 3.65 4.32 4.5 5 C5.325 5.66 6.15 6.32 7 7 C7 7.66 7 8.32 7 9 C5.30810547 8.76228882 5.30810547 8.76228882 3.58203125 8.51977539 C-1.05100835 7.94261613 -5.64799297 7.77962329 -10.3125 7.68359375 C-11.16682617 7.66281265 -12.02115234 7.64203156 -12.90136719 7.62062073 C-15.60083842 7.55581401 -18.30039765 7.49656435 -21 7.4375 C-22.84245661 7.39424908 -24.68490469 7.35063282 -26.52734375 7.30664062 C-31.01814154 7.20020443 -35.50902684 7.09874807 -40 7 C-40 6.67 -40 6.34 -40 6 C-27.46 5.67 -14.92 5.34 -2 5 C-1.67 3.68 -1.34 2.36 -1 1 C-0.67 0.67 -0.34 0.34 0 0 Z " fill="#EAC463" transform="translate(246,222)"/>
<path d="M0 0 C0.99 0 1.98 0 3 0 C3.66 6.27 4.32 12.54 5 19 C4.34 19 3.68 19 3 19 C3 21.31 3 23.62 3 26 C2.01 25.34 1.02 24.68 0 24 C-0.34057617 21.56982422 -0.34057617 21.56982422 -0.29296875 18.5546875 C-0.28330078 17.47832031 -0.27363281 16.40195313 -0.26367188 15.29296875 C-0.23853516 14.16503906 -0.21339844 13.03710938 -0.1875 11.875 C-0.17396484 10.73933594 -0.16042969 9.60367188 -0.14648438 8.43359375 C-0.11104319 5.62192613 -0.06163517 2.81119583 0 0 Z " fill="#EBC566" transform="translate(168,170)"/>
<path d="M0 0 C2.93621134 2.43286082 2.93621134 2.43286082 3.21484375 4.91015625 C1.9621648 14.63165062 -1.2161365 21.90777907 -8 29 C-8.33 28.01 -8.66 27.02 -9 26 C-7.1875 22.8125 -7.1875 22.8125 -5 20 C-4.34 20 -3.68 20 -3 20 C-2.15318867 14.91913204 -1.90961901 10.15171623 -2 5 C-1.34 5.33 -0.68 5.66 0 6 C0 4.02 0 2.04 0 0 Z " fill="#EEC95D" transform="translate(264,122)"/>
<path d="M0 0 C0.33 1.32 0.66 2.64 1 4 C0.34 4 -0.32 4 -1 4 C-1.33 5.98 -1.66 7.96 -2 10 C-4.97 10 -7.94 10 -11 10 C-11 10.66 -11 11.32 -11 12 C-19.26765866 12.68897156 -24.21990432 10.52006379 -31 6 C-30.67 5.01 -30.34 4.02 -30 3 C-29.278125 3.61875 -28.55625 4.2375 -27.8125 4.875 C-23.36107923 8.23829569 -19.78845181 9.47710638 -14.12109375 9.31640625 C-8.87744784 8.53420493 -5.02043916 6.12248308 -1.5 2.25 C-1.005 1.5075 -0.51 0.765 0 0 Z " fill="#EAC863" transform="translate(476,189)"/>
<path d="M0 0 C1.258125 -0.020625 2.51625 -0.04125 3.8125 -0.0625 C4.52019531 -0.07410156 5.22789062 -0.08570312 5.95703125 -0.09765625 C8 0 8 0 11 1 C11.1875 3.375 11.1875 3.375 11 6 C10.01 6.66 9.02 7.32 8 8 C7.34 7.67 6.68 7.34 6 7 C6 7.99 6 8.98 6 10 C4.02 9.34 2.04 8.68 0 8 C0.66 6.02 1.32 4.04 2 2 C1.34 2 0.68 2 0 2 C0 1.34 0 0.68 0 0 Z " fill="#EDC243" transform="translate(216,114)"/>
<path d="M0 0 C0.33 0 0.66 0 1 0 C2.32 5.61 3.64 11.22 5 17 C5.99 16.01 6.98 15.02 8 14 C8.5321441 16.08047297 9.05031786 18.16452293 9.5625 20.25 C9.85253906 21.41015625 10.14257812 22.5703125 10.44140625 23.765625 C10.95179964 26.72090983 11.02996165 28.24434101 10 31 C7.38838823 28.38838823 6.44457099 25.71085325 5 22.3125 C4.484375 21.11238281 3.96875 19.91226563 3.4375 18.67578125 C0.88943026 12.16020074 -0.24265809 6.91575563 0 0 Z " fill="#E8C261" transform="translate(175,177)"/>
<path d="M0 0 C2 2 2 2 2.22705078 4.52197266 C2.21657715 5.5588623 2.20610352 6.59575195 2.1953125 7.6640625 C2.18886719 8.78554687 2.18242188 9.90703125 2.17578125 11.0625 C2.15902344 12.238125 2.14226563 13.41375 2.125 14.625 C2.11597656 15.80835938 2.10695313 16.99171875 2.09765625 18.2109375 C2.07402812 21.14082523 2.04108514 24.0703134 2 27 C0 26 0 26 -0.61669922 24.21508789 C-1.00850652 21.95084101 -1.12938533 19.85553314 -1.1328125 17.55859375 C-1.13410156 16.72779297 -1.13539063 15.89699219 -1.13671875 15.04101562 C-1.13285156 14.18185547 -1.12898437 13.32269531 -1.125 12.4375 C-1.12886719 11.57447266 -1.13273438 10.71144531 -1.13671875 9.82226562 C-1.13542969 8.99275391 -1.13414062 8.16324219 -1.1328125 7.30859375 C-1.13168457 6.55376709 -1.13055664 5.79894043 -1.12939453 5.02124023 C-1 3 -1 3 0 0 Z " fill="#FAD936" transform="translate(596,172)"/>
<path d="M0 0 C0.99 0.33 1.98 0.66 3 1 C2.98839844 2.09699219 2.97679687 3.19398438 2.96484375 4.32421875 C2.95546036 5.77864412 2.94636075 7.23307135 2.9375 8.6875 C2.92912109 9.40873047 2.92074219 10.12996094 2.91210938 10.87304688 C2.89456368 14.71555382 3.06475779 18.26639526 4 22 C3.01 22 2.02 22 1 22 C1 22.66 1 23.32 1 24 C0.01 24.33 -0.98 24.66 -2 25 C-1.34 23.02 -0.68 21.04 0 19 C-0.66 19 -1.32 19 -2 19 C-2 15.37 -2 11.74 -2 8 C-1.67 8 -1.34 8 -1 8 C-0.67 8.99 -0.34 9.98 0 11 C0 7.37 0 3.74 0 0 Z M1 18 C2 21 2 21 2 21 Z " fill="#ECC35C" transform="translate(195,157)"/>
<path d="M0 0 C6.91133679 3.01762592 12.03377388 6.2937733 17 12 C16.67 12.66 16.34 13.32 16 14 C10.125 10.125 10.125 10.125 9 9 C8.34 9.66 7.68 10.32 7 11 C6.67386719 10.52949219 6.34773438 10.05898437 6.01171875 9.57421875 C5.57472656 8.95160156 5.13773437 8.32898438 4.6875 7.6875 C4.25824219 7.07261719 3.82898438 6.45773438 3.38671875 5.82421875 C2.04070466 4.05354669 0.60807197 2.53261991 -1 1 C-0.67 0.67 -0.34 0.34 0 0 Z " fill="#F2CB5B" transform="translate(266,204)"/>
<path d="M0 0 C3.33053438 3.33053438 2.44009244 8.35389984 2.56640625 12.87890625 C2.54846181 17.41276704 2.54846181 17.41276704 5 21 C5.125 23.625 5.125 23.625 5 26 C3.35 25.67 1.7 25.34 0 25 C0 16.75 0 8.5 0 0 Z " fill="#EBC460" transform="translate(187,146)"/>
<path d="M0 0 C7.33333333 3.66666667 14.66666667 7.33333333 22 11 C22 11.66 22 12.32 22 13 C21.34 12.649375 20.68 12.29875 20 11.9375 C15.9486909 10.67146591 13.16625445 11.29385518 9 12 C8.67 11.01 8.34 10.02 8 9 C8.33 8.34 8.66 7.68 9 7 C8.34 7 7.68 7 7 7 C7 6.34 7 5.68 7 5 C5.68 5.33 4.36 5.66 3 6 C0 2.25 0 2.25 0 0 Z " fill="#EAC461" transform="translate(235,188)"/>
<path d="M0 0 C0.94875 0.350625 1.8975 0.70125 2.875 1.0625 C2.875 1.7225 2.875 2.3825 2.875 3.0625 C-0.095 3.7225 -3.065 4.3825 -6.125 5.0625 C-5.70347656 5.90554687 -5.28195313 6.74859375 -4.84765625 7.6171875 C-2.94010417 11.43229167 -1.03255208 15.24739583 0.875 19.0625 C-2.125 18.0625 -2.125 18.0625 -3.51171875 15.91796875 C-3.94097656 15.03753906 -4.37023437 14.15710938 -4.8125 13.25 C-5.24949219 12.37730469 -5.68648437 11.50460938 -6.13671875 10.60546875 C-7.125 8.0625 -7.125 8.0625 -7.125 4.0625 C-8.445 3.7325 -9.765 3.4025 -11.125 3.0625 C-9.145 2.7325 -7.165 2.4025 -5.125 2.0625 C-5.125 1.4025 -5.125 0.7425 -5.125 0.0625 C-3.125 -0.9375 -3.125 -0.9375 0 0 Z " fill="#EEC658" transform="translate(181.125,99.9375)"/>
<path d="M0 0 C1.65 1.65 3.3 3.3 5 5 C3.68 5.33 2.36 5.66 1 6 C1 6.66 1 7.32 1 8 C3.31 8.66 5.62 9.32 8 10 C7.67 10.66 7.34 11.32 7 12 C3.48294042 11.34728444 0.10674923 10.48606976 -3.3125 9.4375 C-4.19550781 9.16808594 -5.07851562 8.89867187 -5.98828125 8.62109375 C-6.65214844 8.41613281 -7.31601563 8.21117187 -8 8 C-5.49187986 5.49187986 -3.37065593 4.12355198 0 3 C0 2.01 0 1.02 0 0 Z " fill="#E7C259" transform="translate(256,217)"/>
<path d="M0 0 C2.97419502 3.10350785 3.31453936 5.70140543 3.68359375 9.90234375 C4.18477331 13.22497859 5.60073338 15.95811605 7 19 C7 19.66 7 20.32 7 21 C7.66 21.33 8.32 21.66 9 22 C9 22.66 9 23.32 9 24 C8.34 24 7.68 24 7 24 C1.34456957 17.43240338 -0.25237176 8.47969105 0 0 Z " fill="#F2C961" transform="translate(430,175)"/>
<path d="M0 0 C0.66 0 1.32 0 2 0 C2 0.66 2 1.32 2 2 C2.99 2 3.98 2 5 2 C4.67 2.66 4.34 3.32 4 4 C3.0409375 4.2165625 3.0409375 4.2165625 2.0625 4.4375 C-0.38210855 4.86165035 -0.38210855 4.86165035 -2 8 C-2.42783066 10.80590236 -2.22830702 13.1233315 -2 16 C1.08888522 18.05925681 1.70935927 18.2390374 5.1875 18.125 C6.445625 18.08375 7.70375 18.0425 9 18 C9 18.66 9 19.32 9 20 C7.56260487 20.02712066 6.12506137 20.04645067 4.6875 20.0625 C3.48673828 20.07990234 3.48673828 20.07990234 2.26171875 20.09765625 C0 20 0 20 -3 19 C-4.38226016 16.23547967 -4.09525387 13.9538637 -4.0625 10.875 C-4.05347656 9.77929688 -4.04445312 8.68359375 -4.03515625 7.5546875 C-4.02355469 6.71164063 -4.01195312 5.86859375 -4 5 C-3.34 4.67 -2.68 4.34 -2 4 C-0.86649466 1.98330173 -0.86649466 1.98330173 0 0 Z " fill="#E8C560" transform="translate(237,145)"/>
<path d="M0 0 C1.98 0.66 3.96 1.32 6 2 C5.34 2.66 4.68 3.32 4 4 C5.32 4.33 6.64 4.66 8 5 C7.67 6.65 7.34 8.3 7 10 C3.37 8.35 -0.26 6.7 -4 5 C-2.68 4.34 -1.36 3.68 0 3 C0 2.01 0 1.02 0 0 Z " fill="#EEC656" transform="translate(267,225)"/>
<path d="M0 0 C0.99 0.66 1.98 1.32 3 2 C0.36 2.66 -2.28 3.32 -5 4 C-5 3.34 -5 2.68 -5 2 C-6.65 2.33 -8.3 2.66 -10 3 C-10.33 3.99 -10.66 4.98 -11 6 C-12.32 6 -13.64 6 -15 6 C-15 5.34 -15 4.68 -15 4 C-15.66 3.67 -16.32 3.34 -17 3 C-11.59392883 -0.50664076 -6.26176803 -0.75691701 0 0 Z " fill="#EBC355" transform="translate(621,147)"/>
<path d="M0 0 C2.84638287 4.26957431 4.25121169 6.41316817 4.4140625 11.54296875 C4.45273438 12.61611328 4.49140625 13.68925781 4.53125 14.79492188 C4.5621875 15.91447266 4.593125 17.03402344 4.625 18.1875 C4.66367188 19.31865234 4.70234375 20.44980469 4.7421875 21.61523438 C4.83652533 24.4099925 4.92211652 27.20474278 5 30 C4.67 30 4.34 30 4 30 C3.01857619 25.75266168 2.69079621 21.52675467 2.4375 17.1875 C2.37272461 16.14819336 2.37272461 16.14819336 2.30664062 15.08789062 C2.20138547 13.39211314 2.10027137 11.69607948 2 10 C1.01 10.495 1.01 10.495 0 11 C0 7.37 0 3.74 0 0 Z " fill="#E4C16A" transform="translate(128,158)"/>
<path d="M0 0 C0.928125 0.33 1.85625 0.66 2.8125 1 C5.92029291 2.14967004 5.92029291 2.14967004 9 2 C10.60546875 3.75 10.60546875 3.75 12.1875 6 C12.71730469 6.7425 13.24710938 7.485 13.79296875 8.25 C14.19128906 8.8275 14.58960938 9.405 15 10 C11.45949499 10 10.39332691 9.19817345 7.5 7.25 C6.7265625 6.73953125 5.953125 6.2290625 5.15625 5.703125 C2.98397794 3.9873449 1.5474553 2.28150461 0 0 Z " fill="#ECC963" transform="translate(147,215)"/>
<path d="M0 0 C1.32 0 2.64 0 4 0 C5.32 2.31 6.64 4.62 8 7 C9.65 7 11.3 7 13 7 C12.67 7.99 12.34 8.98 12 10 C12.66 10.33 13.32 10.66 14 11 C14 11.99 14 12.98 14 14 C10.39713494 12.47475964 8.05700017 10.32514563 5.3125 7.5625 C4.52488281 6.78003906 3.73726562 5.99757812 2.92578125 5.19140625 C1 3 1 3 0 0 Z " fill="#EDC55A" transform="translate(214,187)"/>
<path d="M0 0 C0.12375 0.804375 0.2475 1.60875 0.375 2.4375 C0.684375 3.7059375 0.684375 3.7059375 1 5 C1.66 5.33 2.32 5.66 3 6 C2.67 7.65 2.34 9.3 2 11 C2.66 11.33 3.32 11.66 4 12 C3.01 12 2.02 12 1 12 C0.34 10.35 -0.32 8.7 -1 7 C-2.32 7.99 -3.64 8.98 -5 10 C-5.66 9.01 -6.32 8.02 -7 7 C-5.68 7 -4.36 7 -3 7 C-3.66 5.68 -4.32 4.36 -5 3 C-2.25 0 -2.25 0 0 0 Z " fill="#EAC358" transform="translate(249,142)"/>
<path d="M0 0 C0.66 0.33 1.32 0.66 2 1 C0.8553125 1.804375 0.8553125 1.804375 -0.3125 2.625 C-3.23718313 5.20960369 -4.36754423 7.5018805 -6 11 C-6.99 11.495 -6.99 11.495 -8 12 C-8.59896093 14.30710878 -8.95654965 16.61688718 -9.33984375 18.96875 C-9.55769531 19.6390625 -9.77554687 20.309375 -10 21 C-10.99 21.33 -11.98 21.66 -13 22 C-11.40490514 13.87261189 -8.79892323 7.99661379 -3 2 C-2.01 1.34 -1.02 0.68 0 0 Z " fill="#F1CD70" transform="translate(443,151)"/>
<path d="M0 0 C1.32 0 2.64 0 4 0 C4 1.32 4 2.64 4 4 C2.741875 4.020625 1.48375 4.04125 0.1875 4.0625 C-0.52019531 4.07410156 -1.22789062 4.08570312 -1.95703125 4.09765625 C-4 4 -4 4 -7 3 C-5.02 5.97 -5.02 5.97 -3 9 C-5.64 8.34 -8.28 7.68 -11 7 C-10.34 6.67 -9.68 6.34 -9 6 C-9.33 4.35 -9.66 2.7 -10 1 C-5.65535464 1.60825035 -1.32448133 2.26167392 3 3 C3 2.34 3 1.68 3 1 C2.01 0.67 1.02 0.34 0 0 Z " fill="#E6BF5C" transform="translate(256,123)"/>
<path d="M0 0 C0.99 0 1.98 0 3 0 C3 0.99 3 1.98 3 3 C1.59248779 3.86916887 0.1735479 4.71985149 -1.25 5.5625 C-2.03890625 6.03816406 -2.8278125 6.51382813 -3.640625 7.00390625 C-6.30844625 8.13022151 -7.34501768 8.0169313 -10 7 C-9.67 6.01 -9.34 5.02 -9 4 C-7.6078125 3.8453125 -7.6078125 3.8453125 -6.1875 3.6875 C-2.83847362 2.96516098 -2.1969635 2.40619812 0 0 Z " fill="#EFC752" transform="translate(474,199)"/>
<path d="M0 0 C1.1446875 0.495 1.1446875 0.495 2.3125 1 C4.99069135 2.17436686 4.99069135 2.17436686 8 2 C10.6875 4.5 10.6875 4.5 13 7 C9.37 6.67 5.74 6.34 2 6 C1.34 4.02 0.68 2.04 0 0 Z " fill="#F1C759" transform="translate(207,214)"/>
<path d="M0 0 C2.97 0 5.94 0 9 0 C9 0.66 9 1.32 9 2 C6.69 2 4.38 2 2 2 C1.34 7.61 0.68 13.22 0 19 C-0.33 19 -0.66 19 -1 19 C-1.0272616 16.95840905 -1.04651345 14.91671037 -1.0625 12.875 C-1.07410156 11.73804688 -1.08570313 10.60109375 -1.09765625 9.4296875 C-1.005327 6.1870844 -0.61389906 3.18067388 0 0 Z " fill="#F1DA6A" transform="translate(373,125)"/>
<path d="M0 0 C0 2 0 4 0 6 C1.32 6 2.64 6 4 6 C4.33 7.32 4.66 8.64 5 10 C4.34 10 3.68 10 3 10 C2.67 10.99 2.34 11.98 2 13 C1.15885829 11.56705502 0.32734313 10.12845595 -0.5 8.6875 C-1.19609375 7.48673828 -1.19609375 7.48673828 -1.90625 6.26171875 C-3 4 -3 4 -3 1 C-2.01 0.67 -1.02 0.34 0 0 Z " fill="#F2C552" transform="translate(534,188)"/>
<path d="M0 0 C2.12087964 4.24175928 2.25765477 6.3622141 2 11 C1.67 11.66 1.34 12.32 1 13 C3.31 13.33 5.62 13.66 8 14 C8 14.33 8 14.66 8 15 C4.37 15 0.74 15 -3 15 C-3 14.01 -3 13.02 -3 12 C-2.01 12 -1.02 12 0 12 C0 8.04 0 4.08 0 0 Z " fill="#EDCC66" transform="translate(255,164)"/>
<path d="M0 0 C0.99 0.99 1.98 1.98 3 3 C2.34 4.32 1.68 5.64 1 7 C2.65 8.98 4.3 10.96 6 13 C2.17377257 11.4411666 -0.25147379 9.04566418 -3 6 C-3.33 5.01 -3.66 4.02 -4 3 C-2.68 2.01 -1.36 1.02 0 0 Z " fill="#E8C051" transform="translate(156,208)"/>
<path d="M0 0 C0.70576172 0.52400391 0.70576172 0.52400391 1.42578125 1.05859375 C2.35970703 1.74115234 2.35970703 1.74115234 3.3125 2.4375 C4.23482422 3.11619141 4.23482422 3.11619141 5.17578125 3.80859375 C9.7539229 6.79860061 14.72450569 6.38731818 19.9375 5.5 C20.618125 5.335 21.29875 5.17 22 5 C21.67 5.99 21.34 6.98 21 8 C7.65778594 8.38860818 7.65778594 8.38860818 3 6 C0 2.8 0 2.8 0 0 Z " fill="#E9C766" transform="translate(542,192)"/>
<path d="M0 0 C0 3.44139049 -0.83696602 5.07560315 -2.375 8.125 C-2.81585938 9.01445312 -3.25671875 9.90390625 -3.7109375 10.8203125 C-5 13 -5 13 -7 14 C-7.72159424 15.64363134 -8.39351421 17.31050386 -9 19 C-9.66 19 -10.32 19 -11 19 C-9.70062418 14.60810974 -7.99867186 11.08270853 -5.5 7.25 C-4.8915625 6.30640625 -4.283125 5.3628125 -3.65625 4.390625 C-2 2 -2 2 0 0 Z " fill="#E6C461" transform="translate(144,122)"/>
<path d="M0 0 C0 3.3 0 6.6 0 10 C-0.66 10 -1.32 10 -2 10 C-2 7.36 -2 4.72 -2 2 C-7.55053286 2.74359673 -7.55053286 2.74359673 -13 4 C-9.21303116 -0.35501417 -5.55636855 -0.1262811 0 0 Z " fill="#E4C46B" transform="translate(525,147)"/>
<path d="M0 0 C0 5.66778035 -1.0425806 8.802737 -5 13 C-5.66 13 -6.32 13 -7 13 C-6.65986985 7.55791766 -3.29703472 4.06331802 0 0 Z " fill="#ECC666" transform="translate(143,116)"/>
<path d="M0 0 C1.32 0.33 2.64 0.66 4 1 C4 1.99 4 2.98 4 4 C2.46279297 4.05607422 2.46279297 4.05607422 0.89453125 4.11328125 C-0.46618062 4.17897079 -1.82685611 4.24541709 -3.1875 4.3125 C-3.86103516 4.33505859 -4.53457031 4.35761719 -5.22851562 4.38085938 C-9.60985323 4.61595554 -12.44391376 5.42442686 -16 8 C-16 7.01 -16 6.02 -16 5 C-12.59648662 2.96780512 -9.6767073 2.63108961 -5.75 2.375 C-4.67234375 2.30023438 -3.5946875 2.22546875 -2.484375 2.1484375 C-1.66453125 2.09945312 -0.8446875 2.05046875 0 2 C0 1.34 0 0.68 0 0 Z " fill="#E6C66B" transform="translate(184,93)"/>
<path d="M0 0 C0.433125 0.9590625 0.433125 0.9590625 0.875 1.9375 C1.82823451 4.15206079 1.82823451 4.15206079 4 5 C3.67 6.32 3.34 7.64 3 9 C2.34 9 1.68 9 1 9 C0.67 10.98 0.34 12.96 0 15 C-2.60018816 11.09971775 -2.15085514 7.52565431 -2 3 C-1.34 3 -0.68 3 0 3 C0 2.01 0 1.02 0 0 Z " fill="#F0CA5A" transform="translate(193,147)"/>
<path d="M0 0 C1.32 0.66 2.64 1.32 4 2 C1.36 4.97 -1.28 7.94 -4 11 C-5 7 -5 7 -5 3 C-3.35 3.33 -1.7 3.66 0 4 C-0.33 3.01 -0.66 2.02 -1 1 C-0.67 0.67 -0.34 0.34 0 0 Z " fill="#EBC357" transform="translate(157,126)"/>
<path d="M0 0 C6.19870827 2.80417755 11.17312576 6.25968864 15 12 C14.67 12.66 14.34 13.32 14 14 C11 12 11 12 9 9 C8.13375 8.319375 7.2675 7.63875 6.375 6.9375 C5.59125 6.298125 4.8075 5.65875 4 5 C4 4.34 4 3.68 4 3 C2.68 2.67 1.36 2.34 0 2 C0 1.34 0 0.68 0 0 Z " fill="#E8C967" transform="translate(277,183)"/>
<path d="M0 0 C4.875 4.625 4.875 4.625 6 8 C5.34 8.66 4.68 9.32 4 10 C3.34 9.01 2.68 8.02 2 7 C-0.05925139 6.27617533 -0.05925139 6.27617533 -2 6 C-1.125 1.125 -1.125 1.125 0 0 Z " fill="#EBC040" transform="translate(191,198)"/>
<path d="M0 0 C2.31 0 4.62 0 7 0 C7 0.66 7 1.32 7 2 C6.34 2 5.68 2 5 2 C5 2.66 5 3.32 5 4 C2.29120665 5.35439668 -0.00933268 5.06501451 -3 5 C-2.67 4.01 -2.34 3.02 -2 2 C-1.34 2 -0.68 2 0 2 C0 1.34 0 0.68 0 0 Z " fill="#F2C146" transform="translate(231,135)"/>
<path d="M0 0 C0 3.63 0 7.26 0 11 C-1.32 11.33 -2.64 11.66 -4 12 C-4.33 11.34 -4.66 10.68 -5 10 C-4.505 9.1028125 -4.505 9.1028125 -4 8.1875 C-2.72734712 5.40357182 -3.19699517 3.89081739 -4 1 C-2 0 -2 0 0 0 Z " fill="#EEC241" transform="translate(255,165)"/>
<path d="M0 0 C7.37057084 -0.33167569 13.32426811 -0.33786595 20 3 C20.99 4.485 20.99 4.485 22 6 C19.36 5.34 16.72 4.68 14 4 C14 3.67 14 3.34 14 3 C9.38 2.34 4.76 1.68 0 1 C0 0.67 0 0.34 0 0 Z " fill="#F0CC6F" transform="translate(453,147)"/>
<path d="M0 0 C0.33 0.99 0.66 1.98 1 3 C-1 5 -3 7 -5 9 C-5.33 8.01 -5.66 7.02 -6 6 C-6.66 5.34 -7.32 4.68 -8 4 C-3.375 0 -3.375 0 0 0 Z " fill="#EDBE5F" transform="translate(216,123)"/>
<path d="M0 0 C0.66 0.33 1.32 0.66 2 1 C2.55353075 12.70615034 2.55353075 12.70615034 -1 17 C-2 14 -2 14 -1 11 C-0.77820215 9.10787263 -0.59385985 7.21115528 -0.4375 5.3125 C-0.35371094 4.31863281 -0.26992188 3.32476562 -0.18359375 2.30078125 C-0.12300781 1.54152344 -0.06242187 0.78226563 0 0 Z " fill="#EEC962" transform="translate(479,172)"/>
<path d="M0 0 C2.475 0.495 2.475 0.495 5 1 C5 1.66 5 2.32 5 3 C5.928125 3.2165625 5.928125 3.2165625 6.875 3.4375 C9 4 9 4 11 5 C10.67 5.99 10.34 6.98 10 8 C7.69 7.34 5.38 6.68 3 6 C3 5.01 3 4.02 3 3 C1.56249809 1.31201173 1.56249809 1.31201173 0 0 Z " fill="#EEC557" transform="translate(228,201)"/>
<path d="M0 0 C2.19219402 2.36689329 2.9871902 3.51727269 3.07421875 6.796875 C2.94660156 7.77140625 2.81898438 8.7459375 2.6875 9.75 C2.50767578 11.22726563 2.50767578 11.22726563 2.32421875 12.734375 C2.21722656 13.48203125 2.11023438 14.2296875 2 15 C0.35 14.67 -1.3 14.34 -3 14 C-2.67 13.01 -2.34 12.02 -2 11 C-1.67 11.66 -1.34 12.32 -1 13 C0.10228696 8.59085217 0.07654536 4.51617599 0 0 Z " fill="#F6C845" transform="translate(191,159)"/>
<path d="M0 0 C0.66 0.33 1.32 0.66 2 1 C0.68 3.97 -0.64 6.94 -2 10 C-5 9 -5 9 -7 8 C-7 7.01 -7 6.02 -7 5 C-6.38125 4.855625 -5.7625 4.71125 -5.125 4.5625 C-2.96741678 4.06847775 -2.96741678 4.06847775 -1 3 C-0.67 2.01 -0.34 1.02 0 0 Z " fill="#ECBF3C" transform="translate(509,156)"/>
<path d="M0 0 C-0.99 3.96 -1.98 7.92 -3 12 C-3.33 12 -3.66 12 -4 12 C-4.144375 10.906875 -4.28875 9.81375 -4.4375 8.6875 C-4.88288104 5.06877013 -4.88288104 5.06877013 -6 2 C-2.25 0 -2.25 0 0 0 Z " fill="#EBC458" transform="translate(171,154)"/>
<path d="M0 0 C1.65 0 3.3 0 5 0 C5.1875 2.875 5.1875 2.875 5 6 C4.01 6.66 3.02 7.32 2 8 C0 2.25 0 2.25 0 0 Z " fill="#F4C651" transform="translate(593,149)"/>
<path d="M0 0 C-2.29882518 1.14941259 -4.58961391 2.26344451 -6.9375 3.3125 C-10.24645424 5.13580132 -12.45489953 7.23033184 -15 10 C-15.5 7.8125 -15.5 7.8125 -15 5 C-10.44614287 0.71265359 -6.11016797 -0.63647583 0 0 Z " fill="#E7C963" transform="translate(522,157)"/>
<path d="M0 0 C0.99 0.33 1.98 0.66 3 1 C1.875 3.5 1.875 3.5 0 6 C-3.1875 6.3125 -3.1875 6.3125 -6 6 C-4 4 -2 2 0 0 Z " fill="#EEC862" transform="translate(390,149)"/>
<path d="M0 0 C0.556875 0.70125 1.11375 1.4025 1.6875 2.125 C4.09124732 5.11344261 6.53810432 8.05940238 9 11 C7.35 11 5.7 11 4 11 C4 9.68 4 8.36 4 7 C3.01 6.67 2.02 6.34 1 6 C0.67 4.02 0.34 2.04 0 0 Z " fill="#F0C765" transform="translate(198,203)"/>
<path d="M0 0 C1.32 0.66 2.64 1.32 4 2 C3.67 3.65 3.34 5.3 3 7 C3.66 7.33 4.32 7.66 5 8 C4.34 8.66 3.68 9.32 3 10 C0.525 6.04 0.525 6.04 -2 2 C-1.34 1.34 -0.68 0.68 0 0 Z " fill="#F2C656" transform="translate(191,204)"/>
<path d="M0 0 C3.465 1.485 3.465 1.485 7 3 C6.01 3.495 6.01 3.495 5 4 C5.515625 4.598125 6.03125 5.19625 6.5625 5.8125 C7.036875 6.534375 7.51125 7.25625 8 8 C7.67 8.99 7.34 9.98 7 11 C6.67386719 10.52949219 6.34773438 10.05898437 6.01171875 9.57421875 C5.57472656 8.95160156 5.13773437 8.32898438 4.6875 7.6875 C4.25824219 7.07261719 3.82898438 6.45773438 3.38671875 5.82421875 C2.04070466 4.05354669 0.60807197 2.53261991 -1 1 C-0.67 0.67 -0.34 0.34 0 0 Z " fill="#E2C66E" transform="translate(266,204)"/>
<path d="M0 0 C0.33 0 0.66 0 1 0 C1.33 5.28 1.66 10.56 2 16 C1.34 15.67 0.68 15.34 0 15 C0 14.34 0 13.68 0 13 C-0.66 12.67 -1.32 12.34 -2 12 C-1.34 8.04 -0.68 4.08 0 0 Z " fill="#EBC862" transform="translate(204,165)"/>
<path d="M0 0 C0.66 0.33 1.32 0.66 2 1 C2 1.99 2 2.98 2 4 C2.94978897 6.15028304 2.94978897 6.15028304 4 8 C1.525 9.485 1.525 9.485 -1 11 C-0.67 8.69 -0.34 6.38 0 4 C-0.99 3.67 -1.98 3.34 -3 3 C-2.01 2.01 -1.02 1.02 0 0 Z " fill="#EBC658" transform="translate(602,151)"/>
<path d="M0 0 C0.33 0 0.66 0 1 0 C1.36294314 2.1026706 1.71506972 4.20721057 2.0625 6.3125 C2.25972656 7.48425781 2.45695312 8.65601563 2.66015625 9.86328125 C3 13 3 13 2 16 C1.34 16 0.68 16 0 16 C0 10.72 0 5.44 0 0 Z " fill="#EAC563" transform="translate(373,144)"/>
<path d="M0 0 C6.10642479 -0.78287497 10.00459579 1.89174849 15 5 C13.68 5.33 12.36 5.66 11 6 C11 5.34 11 4.68 11 4 C10.37351563 3.93941406 9.74703125 3.87882812 9.1015625 3.81640625 C8.28429687 3.73261719 7.46703125 3.64882812 6.625 3.5625 C5.40683594 3.44068359 5.40683594 3.44068359 4.1640625 3.31640625 C2 3 2 3 0 2 C0 1.34 0 0.68 0 0 Z " fill="#EBC661" transform="translate(201,91)"/>
<path d="M0 0 C0.66 0.66 1.32 1.32 2 2 C0.68 4.31 -0.64 6.62 -2 9 C-3.32 8.34 -4.64 7.68 -6 7 C-4.02 4.69 -2.04 2.38 0 0 Z " fill="#E6BE6A" transform="translate(157,134)"/>
<path d="M0 0 C2.64 0 5.28 0 8 0 C8 0.66 8 1.32 8 2 C7.34 2 6.68 2 6 2 C5.67 2.99 5.34 3.98 5 5 C4.01 5.66 3.02 6.32 2 7 C1.67 6.01 1.34 5.02 1 4 C1.33 3.34 1.66 2.68 2 2 C1.34 2 0.68 2 0 2 C0 1.34 0 0.68 0 0 Z " fill="#F3CD47" transform="translate(216,114)"/>
<path d="M0 0 C0.33 0.99 0.66 1.98 1 3 C0.34 3 -0.32 3 -1 3 C-1.33 5.64 -1.66 8.28 -2 11 C-2.33 11 -2.66 11 -3 11 C-3.33 8.03 -3.66 5.06 -4 2 C-2.68 1.34 -1.36 0.68 0 0 Z " fill="#E7C45F" transform="translate(186,108)"/>
<path d="M0 0 C0.33 0.66 0.66 1.32 1 2 C2.32 2 3.64 2 5 2 C5.33 3.32 5.66 4.64 6 6 C5.01 6.33 4.02 6.66 3 7 C2.67 6.01 2.34 5.02 2 4 C0.68 4 -0.64 4 -2 4 C-2 3.01 -2 2.02 -2 1 C-1.34 0.67 -0.68 0.34 0 0 Z " fill="#F6CB52" transform="translate(250,214)"/>
<path d="M0 0 C0.33 0.66 0.66 1.32 1 2 C3.31 2 5.62 2 8 2 C8.33 1.34 8.66 0.68 9 0 C9.33 0.99 9.66 1.98 10 3 C9 4 9 4 6.93359375 4.09765625 C6.10988281 4.08605469 5.28617187 4.07445312 4.4375 4.0625 C3.61121094 4.05347656 2.78492188 4.04445312 1.93359375 4.03515625 C1.29550781 4.02355469 0.65742188 4.01195312 0 4 C0 2.68 0 1.36 0 0 Z " fill="#DEC168" transform="translate(494,203)"/>
<path d="M0 0 C0.99 0.495 0.99 0.495 2 1 C2.4140625 3.50390625 2.4140625 3.50390625 2.625 6.5625 C2.69976562 7.57441406 2.77453125 8.58632812 2.8515625 9.62890625 C2.92503906 10.80259766 2.92503906 10.80259766 3 12 C2.34 12 1.68 12 1 12 C-0.26237731 9.47524538 -0.09856404 7.68799534 -0.0625 4.875 C-0.05347656 3.96492187 -0.04445312 3.05484375 -0.03515625 2.1171875 C-0.02355469 1.41851562 -0.01195312 0.71984375 0 0 Z " fill="#E6BC48" transform="translate(168,174)"/>
<path d="M0 0 C0.66 0 1.32 0 2 0 C0.25 5.75 0.25 5.75 -2 8 C-4.125 8.625 -4.125 8.625 -6 9 C-4.4722133 5.56247993 -2.49818944 2.81046312 0 0 Z " fill="#E2BE6B" transform="translate(168,132)"/>
<path d="M0 0 C2.97 0 5.94 0 9 0 C9 0.33 9 0.66 9 1 C7.35 1.33 5.7 1.66 4 2 C4 3.65 4 5.3 4 7 C3.01 7 2.02 7 1 7 C0.67 4.69 0.34 2.38 0 0 Z " fill="#EDC855" transform="translate(187,92)"/>
<path d="M0 0 C2.22825644 2.22825644 2.69239369 3.65761628 3.625 6.625 C4.01558594 7.85089844 4.01558594 7.85089844 4.4140625 9.1015625 C4.60742188 9.72804687 4.80078125 10.35453125 5 11 C4.01 11 3.02 11 2 11 C-0.32590854 7.36576791 -0.16265833 4.22911669 0 0 Z " fill="#E0C26A" transform="translate(292,197)"/>
<path d="M0 0 C1.65 0 3.3 0 5 0 C5 0.99 5 1.98 5 3 C3 4.6875 3 4.6875 1 6 C0.34 5.34 -0.32 4.68 -1 4 C-0.625 1.875 -0.625 1.875 0 0 Z " fill="#ECC041" transform="translate(468,198)"/>
<path d="M0 0 C0.66 0.33 1.32 0.66 2 1 C0.68 3.31 -0.64 5.62 -2 8 C-3.32 7.67 -4.64 7.34 -6 7 C-4.02 4.69 -2.04 2.38 0 0 Z " fill="#E9C759" transform="translate(510,151)"/>
<path d="M0 0 C3.51005335 1.6380249 6.45543849 3.03134491 9 6 C8.67 6.66 8.34 7.32 8 8 C1.23076923 4.55384615 1.23076923 4.55384615 0.0625 1.75 C0.041875 1.1725 0.02125 0.595 0 0 Z " fill="#EACC63" transform="translate(625,149)"/>
<path d="M0 0 C0.33 0 0.66 0 1 0 C1.66 3.3 2.32 6.6 3 10 C3.99 10 4.98 10 6 10 C5.67 11.65 5.34 13.3 5 15 C1.04397828 10.14488244 -0.29212746 6.28074033 0 0 Z " fill="#E6C363" transform="translate(206,166)"/>
<path d="M0 0 C1.77706209 2.66559313 2.87548273 5.0280615 4 8 C3.34 8 2.68 8 2 8 C1.67 8.99 1.34 9.98 1 11 C0.67 11 0.34 11 0 11 C0 7.37 0 3.74 0 0 Z " fill="#E7C35B" transform="translate(128,158)"/>
<path d="M0 0 C2.66666667 1.33333333 5.33333333 2.66666667 8 4 C7.34 4 6.68 4 6 4 C6 6.31 6 8.62 6 11 C4.41028035 8.61542052 3.13258407 6.3695876 1.875 3.8125 C1.52179688 3.09707031 1.16859375 2.38164062 0.8046875 1.64453125 C0.53914063 1.10183594 0.27359375 0.55914062 0 0 Z " fill="#EDC667" transform="translate(409,159)"/>
<path d="M0 0 C4.51290803 3.33562767 6.68206814 5.33289301 8 11 C7.01 11 6.02 11 5 11 C4.731875 10.071875 4.46375 9.14375 4.1875 8.1875 C3.06289965 5.1688359 2.29293427 4.0844857 0 2 C0 1.34 0 0.68 0 0 Z " fill="#E9C865" transform="translate(415,152)"/>
<path d="M0 0 C1.77049689 -0.05410687 3.54146849 -0.09284119 5.3125 -0.125 C6.29863281 -0.14820313 7.28476562 -0.17140625 8.30078125 -0.1953125 C11 0 11 0 14 2 C11.36 2.66 8.72 3.32 6 4 C6 3.01 6 2.02 6 1 C4.02 1 2.04 1 0 1 C0 0.67 0 0.34 0 0 Z " fill="#EFCD68" transform="translate(610,147)"/>
<path d="M0 0 C0 0.99 0 1.98 0 3 C-1.65 3 -3.3 3 -5 3 C-5 3.66 -5 4.32 -5 5 C-6.65 5.66 -8.3 6.32 -10 7 C-10 6.01 -10 5.02 -10 4 C-3.375 0 -3.375 0 0 0 Z " fill="#F0C559" transform="translate(236,142)"/>
<path d="M0 0 C0.66 0.66 1.32 1.32 2 2 C0.35 2 -1.3 2 -3 2 C-3 2.66 -3 3.32 -3 4 C-3.66 4 -4.32 4 -5 4 C-5 3.34 -5 2.68 -5 2 C-7.31 2 -9.62 2 -12 2 C-12 1.67 -12 1.34 -12 1 C-7.94392005 0.01670789 -4.16937798 -0.23600253 0 0 Z " fill="#E7C760" transform="translate(243,133)"/>
<path d="M0 0 C1.32 1.65 2.64 3.3 4 5 C3.67 5.66 3.34 6.32 3 7 C-0.36591866 5.55746343 -2.51047079 3.66735273 -5 1 C-2.525 1.495 -2.525 1.495 0 2 C0 1.34 0 0.68 0 0 Z " fill="#E8C55B" transform="translate(172,123)"/>
<path d="M0 0 C2.97 0.33 5.94 0.66 9 1 C6.64031256 3.09749995 5.45383006 3.96905704 2.25 4.1875 C1.13625 4.0946875 1.13625 4.0946875 0 4 C0 2.66666667 0 1.33333333 0 0 Z " fill="#E4BE51" transform="translate(181,104)"/>
<path d="M0 0 C1.29858939 0.56775536 2.58870441 1.15491663 3.875 1.75 C4.59429687 2.07484375 5.31359375 2.3996875 6.0546875 2.734375 C8.3370674 4.21929686 9.00375898 5.50415408 10 8 C9.34 8 8.68 8 8 8 C8 7.34 8 6.68 8 6 C7.4225 5.896875 6.845 5.79375 6.25 5.6875 C3.64338842 4.89103535 2.0264689 3.80934723 0 2 C0 1.34 0 0.68 0 0 Z " fill="#EEC361" transform="translate(260,207)"/>
<path d="M0 0 C0.66 0.33 1.32 0.66 2 1 C2.625 3.0625 2.625 3.0625 3 5 C1.35 5 -0.3 5 -2 5 C-2.33 3.68 -2.66 2.36 -3 1 C-2.01 0.67 -1.02 0.34 0 0 Z " fill="#FBCC49" transform="translate(261,188)"/>
<path d="M0 0 C0.66 0.33 1.32 0.66 2 1 C2 2.65 2 4.3 2 6 C1.67 5.01 1.34 4.02 1 3 C-0.70840281 4.63412443 -1.93453047 5.86906094 -3 8 C-3.99 7.34 -4.98 6.68 -6 6 C-4.02 4.02 -2.04 2.04 0 0 Z " fill="#E5C460" transform="translate(252,156)"/>
<path d="M0 0 C3.39914975 1.13304992 4.05254451 2.12518475 6 5 C5.01 5.99 4.02 6.98 3 8 C2.34 7.67 1.68 7.34 1 7 C1 5.68 1 4.36 1 3 C0.34 2.67 -0.32 2.34 -1 2 C-0.67 1.34 -0.34 0.68 0 0 Z " fill="#E6BC42" transform="translate(145,145)"/>
<path d="M0 0 C2.97 0 5.94 0 9 0 C9 1.65 9 3.3 9 5 C8.5875 4.484375 8.175 3.96875 7.75 3.4375 C7.1725 2.963125 6.595 2.48875 6 2 C3.93618425 2.32843384 3.93618425 2.32843384 2 3 C1.34 2.67 0.68 2.34 0 2 C0 1.34 0 0.68 0 0 Z " fill="#F5C64E" transform="translate(495,149)"/>
<path d="M0 0 C1.65 0 3.3 0 5 0 C4.67 2.97 4.34 5.94 4 9 C2.00902154 6.01353231 1.05875074 3.40312738 0 0 Z " fill="#EFC75B" transform="translate(475,163)"/>
<path d="M0 0 C0.66 0 1.32 0 2 0 C2.08226668 3.04386724 1.97608217 5.07175348 1 8 C0.01 8.33 -0.98 8.66 -2 9 C-1.125 2.25 -1.125 2.25 0 0 Z " fill="#EDC362" transform="translate(132,142)"/>
<path d="M0 0 C1.65 0 3.3 0 5 0 C4.67 1.32 4.34 2.64 4 4 C2.35 3.67 0.7 3.34 -1 3 C-0.67 2.01 -0.34 1.02 0 0 Z " fill="#F1C241" transform="translate(257,222)"/>
<path d="M0 0 C0 0.99 0 1.98 0 3 C-1.98 3.99 -3.96 4.98 -6 6 C-5.625 3.5625 -5.625 3.5625 -5 1 C-3 0 -3 0 0 0 Z " fill="#EEC562" transform="translate(477,199)"/>
<path d="M0 0 C-0.33 1.98 -0.66 3.96 -1 6 C-3.97 5.505 -3.97 5.505 -7 5 C-2.25 0 -2.25 0 0 0 Z " fill="#EFC55A" transform="translate(166,139)"/>
<path d="M0 0 C0.33 0 0.66 0 1 0 C1.33 2.64 1.66 5.28 2 8 C0.35 7.01 -1.3 6.02 -3 5 C-1.125 1.125 -1.125 1.125 0 0 Z " fill="#E6C86B" transform="translate(220,93)"/>
<path d="M0 0 C1.98 0 3.96 0 6 0 C5.67 1.65 5.34 3.3 5 5 C4.34 5 3.68 5 3 5 C1.375 2.5 1.375 2.5 0 0 Z " fill="#E8C961" transform="translate(285,237)"/>
<path d="M0 0 C0.66 1.32 1.32 2.64 2 4 C2.33 4.33 2.66 4.66 3 5 C3.04063832 6.66617115 3.042721 8.33388095 3 10 C2.01 9.67 1.02 9.34 0 9 C0 6.03 0 3.06 0 0 Z " fill="#F9C352" transform="translate(595,194)"/>
<path d="M0 0 C0.99 0.33 1.98 0.66 3 1 C3 2.65 3 4.3 3 6 C2.01 5.67 1.02 5.34 0 5 C-0.66 5.66 -1.32 6.32 -2 7 C-1.125 2.25 -1.125 2.25 0 0 Z M1 2 C2 4 2 4 2 4 Z " fill="#EBC65D" transform="translate(178,138)"/>
<path d="M0 0 C1.65 1.65 3.3 3.3 5 5 C4.67 5.66 4.34 6.32 4 7 C2.35 6.67 0.7 6.34 -1 6 C-0.67 4.02 -0.34 2.04 0 0 Z " fill="#EDCC5D" transform="translate(210,189)"/>
<path d="M0 0 C2.17854707 3.2678206 3.49760034 6.38058265 5 10 C3.68 9.67 2.36 9.34 1 9 C0.67 6.03 0.34 3.06 0 0 Z " fill="#EACA67" transform="translate(440,182)"/>
<path d="M0 0 C0 0.99 0 1.98 0 3 C0.3062434 4.33981486 0.63451555 5.67511887 1 7 C0.01 7 -0.98 7 -2 7 C-2.33 5.02 -2.66 3.04 -3 1 C-2.01 0.67 -1.02 0.34 0 0 Z " fill="#EECA5B" transform="translate(534,188)"/>
<path d="M0 0 C0.66 0.66 1.32 1.32 2 2 C1.01 4.31 0.02 6.62 -1 9 C-1.66 9 -2.32 9 -3 9 C-2.01 6.03 -1.02 3.06 0 0 Z " fill="#F3C960" transform="translate(433,164)"/>
<path d="M0 0 C0.99 0.33 1.98 0.66 3 1 C2.01 2.485 2.01 2.485 1 4 C0.60612212 6.32387947 0.26513915 8.65793749 0 11 C-0.33 11 -0.66 11 -1 11 C-2.25 3.375 -2.25 3.375 0 0 Z " fill="#ECC95F" transform="translate(598,162)"/>
<path d="M0 0 C1.10844919 3.32534757 0.84454356 5.62182575 0 9 C-1.32 8.01 -2.64 7.02 -4 6 C-3 4 -3 4 0 3 C0 2.01 0 1.02 0 0 Z " fill="#E8C157" transform="translate(480,149)"/>
<path d="M0 0 C0.66 0.66 1.32 1.32 2 2 C1.01 4.64 0.02 7.28 -1 10 C-1.33 10 -1.66 10 -2 10 C-2.25 3.375 -2.25 3.375 0 0 Z " fill="#EAC760" transform="translate(187,136)"/>
<path d="M0 0 C3.0831351 1.19899698 6.06279492 2.47700477 9 4 C8.67 4.66 8.34 5.32 8 6 C5 6 5 6 3.61328125 4.6875 C2.40885417 3.125 1.20442708 1.5625 0 0 Z " fill="#D7B84E" transform="translate(211,119)"/>
<path d="M0 0 C0 0.99 0 1.98 0 3 C-1 4 -1 4 -3.5625 4.0625 C-4.7690625 4.0315625 -4.7690625 4.0315625 -6 4 C-5.67 3.01 -5.34 2.02 -5 1 C-3.35 0.67 -1.7 0.34 0 0 Z " fill="#F5CC41" transform="translate(201,228)"/>
<path d="M0 0 C1.32 0 2.64 0 4 0 C4.33 1.98 4.66 3.96 5 6 C4.01 6.495 4.01 6.495 3 7 C2.01 4.69 1.02 2.38 0 0 Z " fill="#E7CA64" transform="translate(181,201)"/>
<path d="M0 0 C1.5625 1.25 1.5625 1.25 3 3 C2.6875 5.1875 2.6875 5.1875 2 7 C1.01 6.34 0.02 5.68 -1 5 C-0.67 3.35 -0.34 1.7 0 0 Z " fill="#EEC455" transform="translate(270,193)"/>
<path d="M0 0 C0.66 0.99 1.32 1.98 2 3 C0.625 5 0.625 5 -1 7 C-1.66 7 -2.32 7 -3 7 C-2.38722388 4.03824877 -1.74627478 2.61941217 0 0 Z " fill="#E5C059" transform="translate(214,131)"/>
<path d="M0 0 C2.125 0.375 2.125 0.375 4 1 C2.824375 1.928125 2.824375 1.928125 1.625 2.875 C-0.96837647 4.89858661 -0.96837647 4.89858661 -3 7 C-2.25 2.25 -2.25 2.25 0 0 Z " fill="#E9C45C" transform="translate(226,129)"/>
<path d="M0 0 C0.66 0 1.32 0 2 0 C2 0.99 2 1.98 2 3 C1.34 3 0.68 3 0 3 C0 3.66 0 4.32 0 5 C-1.32 5.33 -2.64 5.66 -4 6 C-2.84826645 3.53199953 -1.95216435 1.95216435 0 0 Z " fill="#EBC860" transform="translate(148,110)"/>
</svg>
